<?xml version="1.0" encoding="UTF-8" standalone="no"?>
<!-- Created with Inkscape (http://www.inkscape.org/) -->

<svg
   width="78.786942"
   height="78.698158"
   viewBox="0 0 78.786943 78.69816"
   version="1.1"
   id="svg1"
   xml:space="preserve"
   inkscape:version="1.3 (0e150ed6c4, 2023-07-21)"
   sodipodi:docname="radar-plot-bg.svg"
   xmlns:inkscape="http://www.inkscape.org/namespaces/inkscape"
   xmlns:sodipodi="http://sodipodi.sourceforge.net/DTD/sodipodi-0.dtd"
   xmlns="http://www.w3.org/2000/svg"
   xmlns:svg="http://www.w3.org/2000/svg"><sodipodi:namedview
     id="namedview1"
     pagecolor="#505050"
     bordercolor="#ffffff"
     borderopacity="1"
     inkscape:showpageshadow="0"
     inkscape:pageopacity="0"
     inkscape:pagecheckerboard="1"
     inkscape:deskcolor="#505050"
     inkscape:document-units="mm"
     inkscape:zoom="5.6491959"
     inkscape:cx="27.172009"
     inkscape:cy="58.149869"
     inkscape:window-width="2256"
     inkscape:window-height="1398"
     inkscape:window-x="-11"
     inkscape:window-y="-11"
     inkscape:window-maximized="1"
     inkscape:current-layer="layer1"
     showgrid="false" /><defs
     id="defs1" /><g
     inkscape:label="Layer 1"
     inkscape:groupmode="layer"
     id="layer1"><path
       style="fill:#000000"
       d="m 39.236905,78.68625 -2.09218,-0.0113 -0.71967,-0.0696 -0.71966,-0.0696 -0.86332,-0.0917 -0.86332,-0.0917 -0.99935,-0.17417 -0.99934,-0.17417 -0.381003,-0.0779 -0.381,-0.0779 -0.361777,-0.0522 -0.361777,-0.0522 -0.04539,-0.0734 -0.04539,-0.0734 h -0.28634 -0.28634 l -0.05233,-0.0847 -0.05233,-0.0847 h -0.28634 -0.28634 l -0.05233,-0.0847 -0.05233,-0.0847 h -0.179492 -0.179492 l -0.302344,-0.0964 -0.302345,-0.0964 -0.169333,-0.0621 -0.169333,-0.0621 -0.846667,-0.2707 -0.846667,-0.2707 -0.677333,-0.2558 -0.677333,-0.2558 -0.296334,-0.12642 -0.296333,-0.12642 -0.147018,-0.0776 -0.147018,-0.0776 h -0.128128 -0.128149 v -0.0847 -0.0847 H 23.43673 23.317731 l -0.346668,-0.16934 -0.346668,-0.16933 -0.359833,-0.17652 -0.359833,-0.17653 -0.931334,-0.47396 -0.931333,-0.47397 -0.04233,-0.048 -0.04233,-0.048 -0.1905,-0.10583 -0.1905,-0.10584 -0.1905,-0.10583 -0.1905,-0.10583 -0.04233,-0.0423 -0.04233,-0.0423 -0.169334,-0.0926 -0.169333,-0.0926 -0.211667,-0.11905 -0.211666,-0.11905 -0.04233,-0.0461 -0.04233,-0.0461 -1.016,-0.66292 -1.016,-0.66291 -0.02822,-0.0741 -0.02822,-0.0741 h -0.08885 -0.08885 L 15.861011,70.92548 15.72408,70.7733 15.427747,70.56972 15.131413,70.36615 15.089083,70.31935 15.046753,70.27255 14.41414,69.76724 13.781528,69.26193 13.538589,69.04792 13.29565,68.83391 12.526865,68.11424 11.758079,67.39457 11.328083,66.95794 10.898086,66.52131 10.243323,65.80698 9.58856,65.09264 9.397478,64.84661 9.206396,64.60057 9.036241,64.42474 8.866086,64.24892 8.679182,64.00141 8.492277,63.75391 7.983678,63.07657 7.475079,62.39924 7.405009,62.31454 7.334939,62.22984 6.638195,61.1715 5.941451,60.11317 5.878391,60.02847 5.815331,59.94377 5.466582,59.3511 5.117833,58.75843 4.799554,58.16577 4.481275,57.5731 4.154841,56.94757 3.828407,56.32204 v -0.1153 -0.11531 h -0.08467 -0.08467 v -0.1256 -0.1256 L 3.368457,55.225 3.077847,54.60977 2.914185,54.22877 2.750523,53.84777 2.637178,53.5091 2.523833,53.17043 l -0.06738,-0.0804 -0.06738,-0.0804 v -0.1778 -0.1778 l -0.06942,-0.0804 -0.06942,-0.0804 -0.194661,-0.635 -0.194661,-0.635 -0.066,-0.16933 -0.066,-0.16934 L 1.556871,50.2919 1.384832,49.69923 1.117246,48.59856 0.84966,47.4979 0.7727,47.0534 0.69574,46.6089 0.60495,46.12206 0.51416,45.63523 0.43515,45.0849 0.35614,44.53456 0.26746,43.8149 0.17878,43.09523 0.09149,41.74056 0.0042,40.3859 0.0021,39.3699 0,38.3539 l 0.09075,-1.35467 0.09074,-1.35468 0.08682,-0.762 0.08682,-0.762 0.08622,-0.55033 0.08622,-0.55033 0.07909,-0.46567 0.07909,-0.46567 0.08165,-0.42333 0.08165,-0.42333 0.184747,-0.80434 0.184748,-0.80433 0.163308,-0.59267 0.163308,-0.59266 0.176612,-0.59267 0.176611,-0.59267 0.07597,-0.14702 0.07597,-0.14701 v -0.16549 -0.16548 l 0.08467,-0.0523 0.08467,-0.0523 v -0.20167 -0.20167 l 0.08467,-0.0523 0.08467,-0.0523 v -0.20667 -0.20667 h 0.06405 0.06405 l 0.102439,-0.32822 0.102439,-0.32823 0.387901,-0.92061 0.387901,-0.9206 0.335308,-0.67734 0.335308,-0.67733 -7e-4,-0.0988 -7.01e-4,-0.0988 0.0635,-0.0282 0.0635,-0.0282 0.174998,-0.33867 0.174998,-0.33866 0.369199,-0.67734 0.3692,-0.67733 0.281302,-0.44043 0.281303,-0.44044 v -0.0887 -0.0887 h 0.08467 0.08467 V 18.30403 18.193 l 0.148166,-0.16414 0.148167,-0.16413 0.119375,-0.2314 0.119376,-0.23141 0.134624,-0.14959 0.134625,-0.1496 0.253427,-0.381 0.253427,-0.381 0.41844,-0.55033 0.418441,-0.55033 0.259466,-0.33867 0.259466,-0.33867 0.04424,-0.0423 0.04424,-0.0423 0.797756,-0.93134 0.797757,-0.93133 1.020673,-1.01678 1.020674,-1.01678 0.509236,-0.46489 0.509235,-0.46488 0.51324,-0.42334 0.513239,-0.42333 0.282099,-0.21167 0.2821,-0.21166 0.107544,-0.10584 0.107545,-0.10583 h 0.08366 0.08366 l 0.02822,-0.0739 0.02822,-0.0739 0.762,-0.5557 0.762,-0.5557 0.225057,-0.17475 0.225058,-0.17476 h 0.09244 0.09244 v -0.0847 -0.0847 h 0.09058 0.09058 l 0.369176,-0.254 0.369176,-0.254 h 0.09058 0.09058 v -0.0847 -0.0847 h 0.09058 0.09058 l 0.36168,-0.24885 0.361679,-0.24884 0.754242,-0.39981 0.754242,-0.39981 0.453098,-0.24035 0.453097,-0.24034 h 0.118403 0.118402 v -0.0847 -0.0847 h 0.169334 0.169333 v -0.0847 -0.0847 h 0.128149 0.128149 l 0.147018,-0.0833 0.147017,-0.0833 0.550334,-0.24145 0.550333,-0.24145 0.846667,-0.31507 0.846666,-0.31507 0.147018,-0.0798 0.147018,-0.0798 h 0.165485 0.165486 l 0.05233,-0.0847 0.05233,-0.0847 h 0.165485 0.165485 l 0.147018,-0.0764 0.147018,-0.0764 0.381,-0.10257 0.381,-0.10256 0.169333,-0.0686 0.169334,-0.0686 0.211666,-0.0428 0.211667,-0.0428 0.338667,-0.096 0.338666,-0.096 0.381,-0.0875 0.381,-0.0875 0.296334,-0.066 0.296333,-0.066 0.846665,-0.17264 0.84667,-0.17264 0.85766,-0.13525 0.85766,-0.13525 0.83567,-0.0938 0.83567,-0.0938 1.94734,-0.0532 1.94733,-0.0532 1.35467,0.053 1.35466,0.053 0.84667,0.0925 0.84667,0.0925 0.55033,0.0781 0.55033,0.0781 0.55034,0.0982 0.55033,0.0982 0.635,0.13274 0.635,0.13275 0.381,0.083 0.381,0.083 0.29633,0.0707 0.29634,0.0707 0.33866,0.0982 0.33867,0.0982 0.27595,0.0438 0.27595,0.0438 0.0466,0.0753 0.0465,0.0753 h 0.24401 0.24401 l 0.0523,0.0847 0.0523,0.0847 h 0.20167 0.20168 l 0.0523,0.0847 0.0523,0.0847 h 0.20167 0.20168 l 0.0523,0.0847 0.0523,0.0847 h 0.16549 0.16548 l 0.14702,0.0815 0.14702,0.0815 0.59266,0.20781 0.59267,0.20781 0.33867,0.14281 0.33866,0.1428 0.381,0.16869 0.381,0.16868 0.24584,0.11888 0.24585,0.11888 h 0.11399 0.11399 v 0.0847 0.0847 h 0.16933 0.16934 v 0.0847 0.0847 h 0.11012 0.11012 l 0.22788,0.10583 0.22789,0.10583 6.6e-4,0.0635 6.6e-4,0.0635 h 0.11441 0.11441 l 0.88042,0.47687 0.88043,0.47687 0.22473,0.15813 0.22474,0.15813 h 0.0551 0.0551 l 0.49871,0.33867 0.49871,0.33867 h 0.0893 0.0893 v 0.075 0.075 l 0.27517,0.14148 0.27517,0.14149 0.254,0.18575 0.254,0.18576 0.59266,0.42294 0.59267,0.42294 0.15761,0.1273 0.15762,0.1273 0.1115,0.10583 0.11151,0.10583 h 0.0544 0.0544 l 0.1115,0.10584 0.1115,0.10583 0.15762,0.12833 0.15761,0.12833 0.55034,0.45702 0.55033,0.45702 0.254,0.23171 0.254,0.23172 0.96139,0.9186 0.96138,0.9186 0.85879,0.97367 0.8588,0.97367 0.047,0.0423 0.047,0.0423 0.41884,0.51285 0.41885,0.51285 0.18394,0.24915 0.18394,0.24915 0.34122,0.46567 0.34121,0.46567 0.0682,0.0847 0.0681,0.0847 0.50737,0.76291 0.50736,0.76292 0.10219,0.16842 0.10218,0.16842 0.459,0.762 0.459,0.762 0.28548,0.55033 0.28549,0.55033 0.0635,0.0282 0.0635,0.0282 v 0.16227 0.16228 h 0.0847 0.0847 v 0.0856 0.0855 l 0.41384,0.86695 0.41383,0.86694 0.31183,0.762 0.31183,0.762 0.0885,0.21167 0.0885,0.21167 0.0748,0.14701 0.0748,0.14702 v 0.16549 0.16548 l 0.0847,0.0523 0.0847,0.0523 v 0.16548 0.16549 l 0.0847,0.16818 0.0847,0.16819 0.0847,0.16818 0.0847,0.16818 v 0.17164 0.17163 l 0.0764,0.14701 0.0764,0.14702 0.10274,0.381 0.10274,0.381 0.065,0.21167 0.065,0.21167 0.0918,0.33866 0.0918,0.33867 0.16658,0.71967 0.16658,0.71966 0.17807,0.93134 0.17806,0.93133 0.0849,0.55033 0.0849,0.55034 0.0846,0.762 0.0846,0.762 0.0905,1.14301 0.0905,1.143 0.005,1.43933 0.005,1.43933 -0.0944,1.22767 -0.0944,1.22767 -0.0502,0.508 -0.0502,0.508 -0.0777,0.46566 -0.0777,0.46567 -0.0952,0.59267 -0.0952,0.59266 -0.12071,0.635 -0.1207,0.635 -0.17237,0.71967 -0.17236,0.71967 -0.0737,0.29633 -0.0737,0.29633 -0.1031,0.381 -0.10309,0.381 -0.0836,0.29634 -0.0836,0.29633 -0.0743,0.14702 -0.0743,0.14701 v 0.16549 0.16549 l -0.0847,0.0523 -0.0847,0.0523 v 0.16548 0.16549 l -0.082,0.14702 -0.082,0.14702 -0.12169,0.381 -0.12169,0.381 -0.34604,0.868 -0.34603,0.86801 -0.0754,0.14799 -0.0754,0.148 -0.0846,0.21166 -0.0845,0.21167 -0.45434,0.93133 -0.45433,0.93134 -0.34507,0.635 -0.34507,0.635 -0.17648,0.30622 -0.17648,0.30623 -0.35952,0.58277 -0.35952,0.58278 -0.0928,0.18983 -0.0928,0.18984 -0.0635,6.6e-4 -0.0635,6.7e-4 v 0.127 0.127 h -0.0704 -0.0704 l -0.12014,0.23283 -0.12014,0.23283 -0.0658,0.0847 -0.0658,0.0847 -0.59261,0.80433 -0.59261,0.80433 -0.10361,0.12728 -0.1036,0.12728 -0.29415,0.38072 -0.29414,0.38072 -0.0474,0.0423 -0.0474,0.0423 -0.19518,0.254 -0.19517,0.254 -0.81791,0.88369 -0.8179,0.88369 -0.59566,0.59797 -0.59565,0.59798 -0.71668,0.64982 -0.71668,0.64982 -0.55834,0.45085 -0.55834,0.45085 -0.27845,0.21166 -0.27844,0.21167 -0.15092,0.127 -0.15092,0.127 -0.17743,0.14817 -0.17743,0.14816 h -0.0766 -0.0767 l -0.0282,0.068 -0.0282,0.068 -1.0753,0.7363 -1.0753,0.73631 h -0.0524 -0.0524 l -0.36918,0.254 -0.36917,0.254 h -0.0906 -0.0906 v 0.0847 0.0847 h -0.0809 -0.0809 l -0.40589,0.23928 -0.4059,0.23928 -1.143,0.57515 -1.143,0.57515 -0.3255,0.15924 -0.3255,0.15924 h -0.119 -0.119 v 0.0847 0.0847 h -0.1524 -0.1524 l -0.0804,0.0738 -0.0804,0.0738 -0.889,0.33979 -0.889,0.33978 -0.93134,0.30935 -0.93133,0.30934 -0.14702,0.0814 -0.14702,0.0814 h -0.25015 -0.25015 l -0.0523,0.0847 -0.0523,0.0847 h -0.24401 -0.24401 l -0.0465,0.0753 -0.0466,0.0753 -0.27595,0.0477 -0.27595,0.0477 -0.29633,0.0521 -0.29634,0.0521 -0.16933,0.0722 -0.16933,0.0721 -0.33867,0.0565 -0.33867,0.0565 -0.33866,0.0692 -0.33867,0.0692 -0.99935,0.17417 -0.99934,0.17417 -0.86332,0.0875 -0.86332,0.0875 -0.87116,0.0851 -0.87115,0.0851 z m -1.49528,-0.51049 0.17357,0.0137 0.1016,-0.1016 0.1016,-0.1016 v -1.07455 -1.07456 l -0.21548,-0.0541 -0.21547,-0.0541 -1.16036,-0.0867 -1.16036,-0.0867 -0.59267,-0.0718 -0.59266,-0.0718 -0.55033,-0.0937 -0.55034,-0.0937 -0.46566,-0.0874 -0.46567,-0.0874 -0.29633,-0.044 -0.296336,-0.0441 -0.169334,-0.0737 -0.169333,-0.0736 -0.254,-0.0392 -0.254,-0.0392 -0.531463,-0.1441 -0.531462,-0.1441 -0.108183,0.0415 -0.108183,0.0415 -0.09998,0.3265 -0.09998,0.3265 -0.159494,0.50949 -0.159495,0.5095 -0.05769,0.26267 -0.05769,0.26266 0.194811,0.0584 0.194811,0.0584 0.635,0.17176 0.635,0.17176 0.381,0.0827 0.381,0.0827 0.338667,0.0417 0.338664,0.0417 0.16934,0.0754 0.16933,0.0754 0.381,0.0436 0.381,0.0436 0.55033,0.0876 0.55034,0.0876 0.80433,0.0901 0.80434,0.0901 0.93133,0.0657 0.93133,0.0657 z m 2.74038,0.009 0.38805,-0.005 1.18534,-0.0803 1.18533,-0.0803 0.71967,-0.0847 0.71966,-0.0847 0.52917,-0.0844 0.52917,-0.0844 0.48683,-0.0808 0.48683,-0.0808 0.42334,-0.0833 0.42333,-0.0833 0.254,-0.0516 0.254,-0.0516 0.33867,-0.0911 0.33866,-0.0911 0.25621,-0.0745 0.25621,-0.0745 -0.0323,-0.33888 -0.0323,-0.33889 -0.0757,-0.0468 -0.0757,-0.0468 V 75.9443 75.74162 l -0.0759,-0.19449 -0.0759,-0.19448 -0.10947,-0.3672 -0.10947,-0.36721 -0.30151,0.0428 -0.30152,0.0428 -0.381,0.0969 -0.381,0.0969 -0.42333,0.0821 -0.42334,0.0821 -0.42333,0.0863 -0.42333,0.0863 -0.55034,0.0825 -0.55033,0.0825 -0.59267,0.0779 -0.59266,0.0779 -1.143,0.085 -1.143,0.085 -0.52917,0.0564 -0.52917,0.0564 v 1.11903 1.11902 l 0.0565,0.0565 0.0564,0.0564 z m 10.22305,-1.68871 h 0.14597 l 0.80919,-0.26168 0.80918,-0.26168 0.21166,-0.0869 0.21167,-0.0869 0.127,-0.0606 0.127,-0.0606 0.40217,-0.11739 0.40216,-0.11739 v -0.0662 -0.0662 h 0.12815 0.12815 l 0.14702,-0.0748 0.14702,-0.0748 0.21166,-0.0862 0.21167,-0.0862 1.69333,-0.82191 1.69334,-0.82192 0.0423,-0.061 0.0423,-0.061 0.27517,-0.11972 0.27517,-0.11972 v -0.064 -0.064 h 0.11103 0.11104 l 0.18713,-0.17434 0.18713,-0.17433 -0.14709,-0.249 -0.14709,-0.24899 h -0.0664 -0.0664 v -0.11995 -0.11994 l -0.064,-0.0282 -0.0639,-0.0282 -0.38056,-0.57108 -0.38055,-0.57107 -0.13123,-4.3e-4 -0.13124,-4.2e-4 -0.0804,0.0767 -0.0804,0.0767 -0.3175,0.17731 -0.3175,0.17731 -0.27517,0.15527 -0.27517,0.15528 -1.143,0.5752 -1.143,0.57521 -0.16933,0.0631 -0.16933,0.0631 -0.42334,0.19078 -0.42333,0.19079 -0.21167,0.0853 -0.21166,0.0853 -0.16934,0.0648 -0.16933,0.0648 -0.26562,0.0995 -0.26562,0.0995 -0.91971,0.31967 -0.91972,0.31966 0.0102,0.24552 0.0102,0.24552 0.22425,0.80433 0.22424,0.80433 0.038,0.10584 0.038,0.10583 z m -23.339326,-0.17732 0.04233,0.005 0.09312,-0.0622 0.09312,-0.0622 0.229696,-0.762 0.229696,-0.762 0.08899,-0.23132 0.08899,-0.23131 -0.0414,-0.10788 -0.0414,-0.10789 -1.00541,-0.33711 -1.00541,-0.33711 -0.02822,-0.0645 -0.02822,-0.0645 h -0.121094 -0.121093 l -0.168185,-0.0847 -0.168184,-0.0847 -0.168185,-0.0847 -0.168184,-0.0847 h -0.128149 -0.128149 v -0.0847 -0.0847 h -0.128141 -0.128149 l -0.147018,-0.0814 -0.147018,-0.0814 -1.100667,-0.53935 -1.100666,-0.53934 -0.338667,-0.19663 -0.338667,-0.19662 -0.338666,-0.17746 -0.338667,-0.17747 -0.04233,-0.0537 -0.04233,-0.0537 -0.320075,-0.17915 -0.320075,-0.17914 h -0.124425 -0.124425 v 0.11103 0.11104 l -0.148166,0.16413 -0.148167,0.16413 -0.12014,0.23283 -0.12014,0.23284 h -0.07036 -0.07036 v 0.127 0.127 h -0.08467 -0.08467 v 0.127 0.127 h -0.08467 -0.08467 v 0.127 0.127 h -0.08467 -0.08467 v 0.0815 0.0815 l 0.486833,0.32772 0.486834,0.32771 0.275166,0.11944 0.275167,0.11944 v 0.064 0.064 h 0.119945 0.119944 l 0.02822,0.0742 0.02822,0.0742 1.651,0.80324 1.651,0.80324 0.401244,0.18089 0.401244,0.1809 h 0.06969 0.06969 l 0.35048,0.16933 0.350479,0.16933 h 0.126094 0.126093 l 0.05233,0.0847 0.05233,0.0847 h 0.165485 0.165485 l 0.147018,0.0748 0.147018,0.0748 0.211667,0.0884 0.211666,0.0883 0.254,0.0842 0.254,0.0842 z m 12.953996,-0.98864 1.98967,-0.0236 0.21166,-0.0489 0.21167,-0.0489 0.71967,-0.0771 0.71966,-0.0771 0.381,-0.0427 0.381,-0.0427 0.42334,-0.0807 0.42333,-0.0807 0.46567,-0.0915 0.46566,-0.0915 0.33867,-0.0771 0.33867,-0.0772 0.71966,-0.18006 0.71967,-0.18006 0.27517,-0.0771 0.27516,-0.0771 0.27517,-0.0759 0.27517,-0.0759 0.46566,-0.14504 0.46567,-0.14504 0.1905,-0.0754 0.1905,-0.0754 0.23283,-0.0945 0.23284,-0.0945 0.14701,-0.0748 0.14702,-0.0748 h 0.1293 0.1293 l 0.14702,-0.0748 0.14701,-0.0748 0.21167,-0.0857 0.21167,-0.0857 0.46566,-0.2102 0.46567,-0.21021 0.635,-0.28421 0.635,-0.28421 0.0282,-0.0648 0.0282,-0.0648 h 0.16228 0.16228 v -0.0847 -0.0847 h 0.16933 0.16934 l 3e-4,-0.0635 3e-4,-0.0635 0.46506,-0.21167 0.46507,-0.21166 3e-4,-0.0635 3e-4,-0.0635 h 0.0861 0.0861 l 0.65472,-0.39472 0.65473,-0.39471 0.889,-0.59084 0.889,-0.59084 0.0282,-0.0728 0.0282,-0.0728 h 0.075 0.075 l 0.82812,-0.6367 0.82812,-0.63671 0.33867,-0.29314 0.33867,-0.29314 0.46416,-0.40365 0.46416,-0.40366 1.22917,-1.23964 1.22917,-1.23963 0.29634,-0.35823 0.29633,-0.35822 0.17027,-0.18014 0.17027,-0.18014 0.58375,-0.762 0.58376,-0.762 0.0715,-0.0282 0.0715,-0.0282 v -0.11994 -0.11994 h 0.0847 0.0847 v -0.11995 -0.11994 l 0.074,-0.0282 0.074,-0.0282 0.7303,-1.11001 0.73031,-1.11002 v -0.0965 -0.0965 h 0.0748 0.0748 l 0.047,-0.14816 0.047,-0.14817 0.15339,-0.254 0.15338,-0.254 0.0435,-0.0423 0.0435,-0.0423 0.21053,-0.42333 0.21052,-0.42333 0.0635,-0.0282 0.0635,-0.0282 v -0.0945 -0.0945 l 0.45932,-0.93563 0.45932,-0.93562 0.17568,-0.40125 0.17568,-0.40124 v -0.12792 -0.12792 h 0.0847 0.0847 v -0.16434 -0.16434 l 0.0847,-0.0523 0.0847,-0.0523 V 52.35998 52.1945 l 0.0979,-0.18935 0.0979,-0.18935 0.0714,-0.14702 0.0714,-0.14702 v -0.15355 -0.15355 l 0.0694,-0.0804 0.0694,-0.0804 0.18121,-0.59267 0.18122,-0.59267 0.1679,-0.55033 0.16789,-0.55033 0.13491,-0.59267 0.1349,-0.59267 0.0781,-0.29633 0.0781,-0.29633 0.0506,-0.29634 0.0506,-0.29633 0.0423,-0.33867 0.0423,-0.33866 0.0754,-0.16934 0.0754,-0.16933 0.0487,-0.42333 0.0487,-0.42334 0.0807,-0.635 0.0807,-0.635 0.10296,-1.397 0.10297,-1.397 7.4e-4,-1.05833 7.4e-4,-1.05833 -0.0659,-1.31234 -0.0659,-1.31234 -0.075,-0.16933 -0.075,-0.16934 -0.0399,-0.59266 -0.0399,-0.59267 -0.0873,-0.508 -0.0873,-0.508 -0.0817,-0.46567 -0.0817,-0.46566 -0.055,-0.254 -0.055,-0.254 -0.25089,-1.05834 -0.25089,-1.05833 -0.29807,-0.97367 -0.29807,-0.97366 -0.0792,-0.14702 -0.0792,-0.14702 v -0.1293 -0.1293 l -0.0748,-0.14701 -0.0748,-0.14702 -0.0945,-0.23283 -0.0945,-0.23284 -0.0847,-0.21166 -0.0847,-0.21167 -0.0847,-0.21167 -0.0847,-0.21166 -0.0743,-0.1905 -0.0743,-0.1905 -0.25493,-0.55034 -0.25493,-0.55033 -0.40689,-0.84667 -0.40688,-0.84666 -0.0682,-0.0282 -0.0682,-0.0282 V 22.13317 21.9709 h -0.0689 -0.0689 l -0.11627,-0.29634 -0.11628,-0.29633 h -0.0689 -0.0689 V 21.2089 21.03956 h -0.0744 -0.0744 l -0.10521,-0.254 -0.10521,-0.254 h -0.0744 -0.0744 v -0.0884 -0.0884 l -0.38057,-0.56776 -0.38058,-0.56776 -0.0851,-0.10226 -0.0851,-0.10226 -0.002,-0.0671 -0.002,-0.0671 -0.20421,-0.254 -0.20421,-0.254 -0.70062,-0.93133 -0.70062,-0.93133 -0.0885,-0.0918 -0.0885,-0.0918 -0.35249,-0.41618 -0.35248,-0.41617 -0.18198,-0.21167 -0.18198,-0.21167 -0.91373,-0.93133 -0.91372,-0.93133 -0.66848,-0.6104 -0.66848,-0.61039 -0.385,-0.32094 -0.38501,-0.32094 -0.32526,-0.254 -0.32526,-0.254 -0.0941,-0.0874 -0.0941,-0.0875 -0.29634,-0.2048 -0.29633,-0.2048 -0.0423,-0.0515 -0.0423,-0.0515 -0.83422,-0.56639 -0.83423,-0.56639 h -0.0383 -0.0382 l -0.49871,-0.33867 -0.49871,-0.33867 h -0.0893 -0.0893 v -0.064 -0.064 l -0.27516,-0.11972 -0.27517,-0.11972 -0.0423,-0.0553 -0.0423,-0.0553 -1.35466,-0.67396 -1.35467,-0.67396 -0.55033,-0.23769 -0.55034,-0.23769 -0.1905,-0.077 -0.1905,-0.077 -0.21166,-0.0847 -0.21167,-0.0847 -0.1905,-0.0821 -0.1905,-0.0821 -1.05833,-0.34535 -1.05834,-0.34534 -1.016,-0.27995 -1.016,-0.27996 -0.508,-0.10327 -0.508,-0.10327 -0.29633,-0.0749 -0.29633,-0.0749 -0.29634,-0.0473 -0.29633,-0.0473 -0.42333,-0.0467 -0.42334,-0.0467 -0.16933,-0.0753 -0.16933,-0.0753 -0.508,-0.0375 -0.508,-0.0375 -1.43934,-0.11108 -1.43933,-0.11107 -1.10067,-8.2e-4 -1.10066,-8.2e-4 -1.31234,0.10394 -1.31233,0.10394 -0.71967,0.0788 -0.71966,0.0788 -0.508,0.0873 -0.508,0.0873 -0.42333,0.0755 -0.42334,0.0755 -0.635,0.14233 -0.634996,0.14233 -0.381,0.0911 -0.381,0.0911 -1.016,0.2906 -1.016,0.2906 -0.169334,0.0689 -0.169333,0.0689 -0.338667,0.102 -0.338666,0.10199 -0.1905,0.0791 -0.1905,0.0791 -0.211667,0.0847 -0.211667,0.0847 -0.211666,0.0847 -0.211667,0.0847 -0.232833,0.0945 -0.232834,0.0945 -0.147018,0.0748 -0.147017,0.0748 h -0.128149 -0.128149 v 0.0847 0.0847 h -0.106195 -0.106196 l -0.719304,0.34585 -0.719305,0.34586 -0.465667,0.22165 -0.465666,0.22166 -0.04233,0.0463 -0.04233,0.0463 -0.2021,0.11379 -0.2021,0.1138 -0.284733,0.16137 -0.284734,0.16137 -0.284979,0.16151 -0.284979,0.16151 -0.73397,0.47349 -0.73397,0.47349 h -0.08172 -0.08172 v 0.0647 0.0647 l -0.338667,0.20931 -0.338666,0.2093 v 0.0647 0.0647 h -0.127 -0.127 v 0.0847 0.0847 h -0.108309 -0.108309 l -0.122049,0.16933 -0.122048,0.16933 h -0.06983 -0.06982 l -0.211667,0.21167 -0.211666,0.21167 -0.05965,10e-4 -0.05965,0.001 -0.283664,0.25005 -0.283663,0.25005 -0.297663,0.23543 -0.297664,0.23543 -0.593857,0.55034 -0.593858,0.55033 -0.518149,0.51575 -0.518149,0.51576 -0.719667,0.76761 -0.719666,0.76762 -0.312004,0.36763 -0.312004,0.36763 -0.23833,0.30441 -0.238329,0.30441 -0.211666,0.27838 -0.211667,0.27838 -0.190397,0.22155 -0.190396,0.22154 -1.04e-4,0.10583 -1.03e-4,0.10583 h -0.06641 -0.06641 L 10.07429,18.47784 9.934727,18.71067 9.8029,18.88 9.671074,19.04934 9.373876,19.49179 9.076677,19.93425 v 0.0867 0.0867 h -0.08467 -0.08467 v 0.127 0.127 h -0.07479 -0.07479 l -0.04699,0.14817 -0.04699,0.14816 -0.153387,0.254 -0.153386,0.254 -0.04233,0.0423 -0.04233,0.0423 L 8.038613,21.67391 7.804882,22.09725 7.29778,23.11 6.790677,24.12276 v 0.10907 0.10908 h -0.08467 -0.08467 v 0.16434 0.16434 l -0.08467,0.0523 -0.08467,0.0523 v 0.16434 0.16433 h -0.08467 -0.08467 v 0.12815 0.12815 l -0.07755,0.14702 -0.07755,0.14702 -0.127694,0.29633 -0.127695,0.29633 -0.223268,0.635 -0.223268,0.635 -0.25688,0.80434 -0.256881,0.80433 -0.0825,0.29633 -0.0825,0.29634 -0.04282,0.21166 -0.04282,0.21167 -0.07252,0.16933 -0.07252,0.16934 -0.045,0.254 -0.045,0.254 -0.05121,0.29633 -0.05121,0.29633 -0.07365,0.16934 -0.07365,0.16933 -0.04985,0.33867 -0.04985,0.33866 -0.08622,0.46567 -0.08622,0.46567 -0.07237,0.55033 -0.07237,0.55033 -0.114313,0.93134 -0.114313,0.93134 5.39e-4,2.921 5.39e-4,2.921 0.114192,0.84667 0.114192,0.84666 0.06596,0.508 0.06596,0.508 0.05882,0.46567 0.05882,0.46567 0.07318,0.16933 0.07318,0.16933 0.04234,0.33867 0.04234,0.33867 0.0529,0.29633 0.0529,0.29633 0.07252,0.16934 0.07252,0.16933 0.05475,0.254 0.05475,0.254 0.04565,0.27595 0.04565,0.27595 0.07531,0.0465 0.07531,0.0465 v 0.18104 0.18104 l 0.382396,1.14747 0.382396,1.14746 0.06903,0.127 0.06903,0.127 0.117388,0.40217 0.117388,0.40216 h 0.06618 0.06618 v 0.12815 0.12815 l 0.07479,0.14702 0.07479,0.14702 0.08418,0.21166 0.08418,0.21167 0.257187,0.55033 0.257188,0.55034 0.315534,0.67733 0.315533,0.67733 0.05262,0.0423 0.05262,0.0423 0.209383,0.42333 0.209382,0.42334 0.05026,0.0423 0.05026,0.0423 0.119718,0.27517 0.119719,0.27517 h 0.064 0.064 v 0.127 0.127 h 0.08467 0.08467 v 0.0844 0.0844 l 0.569501,0.86807 0.569501,0.86806 0.107833,0.11188 0.107832,0.11188 v 0.0726 0.0726 l 0.10862,0.11188 0.10862,0.11188 0.207674,0.29634 0.207674,0.29633 0.128206,0.15666 0.128206,0.15665 0.232833,0.25447 0.232834,0.25446 v 0.0668 0.0668 l 0.232833,0.25047 0.232833,0.25047 0.423334,0.49367 0.423333,0.49366 1.354666,1.36032 1.354667,1.36032 0.719667,0.59994 0.719666,0.59994 0.592667,0.44334 0.592667,0.44333 0.135035,0.10882 0.135035,0.10881 0.542298,0.36604 0.542298,0.36603 0.02822,0.0694 0.02822,0.0694 h 0.07466 0.07466 l 0.721842,0.46566 0.721842,0.46567 h 0.07838 0.07838 l 0.02822,0.0635 0.02822,0.0635 0.254,0.14838 0.254,0.14838 1.481667,0.74062 1.481666,0.74062 0.296334,0.11436 0.296333,0.11436 0.296333,0.12771 0.296334,0.1277 0.245841,0.11777 0.245841,0.11777 h 0.115141 0.115141 l 0.147018,0.0748 0.147018,0.0748 0.254,0.10443 0.254,0.10442 0.147017,0.0748 0.147018,0.0748 h 0.165486 0.165485 l 0.04654,0.0753 0.04655,0.0753 0.275951,0.0416 0.275952,0.0416 0.592666,0.1821 0.592667,0.1821 0.592667,0.16037 0.592666,0.16037 0.719667,0.14277 0.71967,0.14277 0.381,0.0762 0.381,0.0762 0.59266,0.0892 0.59267,0.0892 0.762,0.0845 0.762,0.0845 1.143,0.0585 1.143,0.0585 z m -1.41551,-0.86734 -0.0662,-0.001 -0.0848,-0.0622 -0.0848,-0.0622 -0.12,-0.23283 -0.12001,-0.23284 h -0.57836 -0.57836 v 0.16513 0.16512 l -0.12088,0.0677 -0.12088,0.0677 -0.41229,-0.0282 -0.4123,-0.0282 -0.24268,-0.3836 -0.24267,-0.38359 -0.17145,-0.15973 -0.17145,-0.15972 h -0.18742 -0.18741 l -0.093,0.26663 -0.093,0.26664 v 0.19903 0.19903 h -0.16434 -0.16434 l -0.0474,-0.0768 -0.0474,-0.0768 0.0898,-0.66408 0.0898,-0.66408 0.0879,-0.45448 0.0879,-0.45447 0.39386,0.0501 0.39386,0.0501 0.40444,0.0738 0.40444,0.0738 0.12203,0.16124 0.12204,0.16125 0.003,0.26764 0.003,0.26764 -0.26424,0.22234 -0.26424,0.22234 0.24669,0.39902 0.2467,0.39902 h 0.11822 0.11822 l 0.42849,-0.99679 0.42849,-0.99679 0.2036,-0.0529 0.20361,-0.0528 0.12207,0.077 0.12207,0.077 0.20701,0.63397 0.20701,0.63397 0.0925,0.21166 0.0925,0.21167 0.0846,0.18479 0.0846,0.18479 -0.0509,0.13271 -0.0509,0.13271 z m -0.95516,-1.0147 h 0.24401 l 0.0427,-0.0691 0.0427,-0.0691 -0.10883,-0.31656 -0.10882,-0.31656 -0.0559,0.005 -0.0559,0.005 h -0.0807 -0.0807 l -0.0855,0.30955 -0.0855,0.30956 0.0442,0.0714 0.0442,0.0714 z m -2.31753,-0.59524 0.34947,0.003 0.1045,-0.12592 0.10451,-0.12592 -0.042,-0.10957 -0.042,-0.10957 -0.44706,-0.11458 -0.44706,-0.11458 -0.11303,0.15459 -0.11304,0.15458 v 0.10661 0.10661 l 0.14817,0.0863 0.14816,0.0863 z m 4.60081,1.59143 -0.73273,0.0418 -0.0556,-0.14491 -0.0556,-0.14491 v -0.65859 -0.65859 l 0.0538,-0.39282 0.0538,-0.39282 h 0.74435 0.74434 l 0.17548,0.22309 0.17548,0.22308 v 0.15292 0.15292 l -0.0847,0.0523 -0.0847,0.0523 v 0.12543 0.12544 l 0.18163,0.24567 0.18164,0.24567 -0.10858,0.26214 -0.10858,0.26213 -0.17373,0.093 -0.17372,0.093 z m 0.13728,-0.40352 h 0.35468 l 0.18898,-0.15303 0.18898,-0.15302 -0.14331,-0.14331 -0.14331,-0.14331 h -0.36803 -0.36803 l -0.13392,0.0514 -0.13393,0.0514 v 0.14334 0.14335 l 0.1016,0.1016 0.1016,0.1016 z m -0.0546,-1.016 h 0.40726 l 0.10451,-0.12593 0.1045,-0.12592 -0.0491,-0.12808 -0.0491,-0.12807 h -0.46332 -0.46333 l -0.0528,0.0854 -0.0528,0.0854 0.0535,0.16858 0.0535,0.16858 z m 1.82499,1.35466 h -0.117 l -0.0499,-0.0807 -0.0499,-0.0807 -0.0532,-1.11223 -0.0532,-1.11224 0.20395,0.0288 0.20394,0.0288 0.0572,1.09777 0.0572,1.09777 -0.041,0.0664 -0.041,0.0664 z m 1.16515,-0.1131 -0.35886,0.0474 -0.0382,-0.1153 -0.0382,-0.1153 -0.0474,-0.635 -0.0474,-0.635 -0.0506,-0.4445 -0.0506,-0.4445 h 0.20149 0.20148 l 0.10782,0.91017 0.10782,0.91016 0.0771,0.0777 0.0772,0.0777 0.33004,-0.0989 0.33004,-0.0989 h 0.22301 0.22301 v 0.20372 0.20372 l -0.4445,0.0547 -0.4445,0.0547 z m 1.84318,-0.22556 h -0.17199 l -4.8e-4,-0.23284 -4.7e-4,-0.23283 -0.076,-0.29633 -0.076,-0.29634 -0.0449,-0.60543 -0.0449,-0.60543 0.15277,-0.04 0.15276,-0.04 0.0909,0.43371 0.0909,0.43372 0.10146,0.60593 0.10146,0.60593 -0.0518,0.1349 -0.0518,0.13491 z m -11.98066,-0.17764 -0.42566,-0.008 -0.18147,-0.10084 -0.18147,-0.10084 -0.13603,-0.11289 -0.13603,-0.1129 V 73.00981 72.592 l 0.0798,-0.35499 0.0798,-0.35499 0.0488,-0.23284 0.0488,-0.23283 h 0.17624 0.17625 l -0.0545,0.40217 -0.0545,0.40216 -0.0457,0.52509 -0.0457,0.52509 0.32292,0.13492 0.32292,0.13493 0.18281,-0.0978 0.1828,-0.0978 0.0857,-0.18118 0.0857,-0.18118 0.10368,-0.635 0.10368,-0.635 0.0877,-0.0558 0.0877,-0.0558 0.12098,0.12097 0.12097,0.12098 -0.0924,0.26497 -0.0924,0.26498 v 0.4057 0.40571 l -0.0847,0.0523 -0.0847,0.0523 v 0.15953 0.15954 l -0.18817,0.1318 -0.18817,0.1318 z m 13.57339,-0.0961 -0.14027,0.0291 -0.067,-0.10837 -0.067,-0.10838 -0.0748,-0.46781 -0.0749,-0.46781 -0.0571,-0.33867 -0.0571,-0.33867 -0.25344,-0.01 -0.25345,-0.01 -0.10583,-0.0114 -0.10583,-0.0114 V 71.75424 71.5849 h 0.25956 0.25957 l 0.1426,-0.0738 0.1426,-0.0738 0.4445,-0.0408 0.4445,-0.0408 v 0.19361 0.19362 l -0.23283,0.0268 -0.23284,0.0268 -0.0292,0.254 -0.0292,0.254 0.0952,0.42333 0.0952,0.42334 0.0186,0.29304 0.0186,0.29305 z m -15.995775,-0.40367 -0.472723,1e-4 -0.05551,-0.0555 -0.05551,-0.0555 -0.317524,-0.0516 -0.317523,-0.0516 -0.02818,-0.14633 -0.02818,-0.14632 0.169416,-0.57205 0.169417,-0.57206 0.101688,-0.40216 0.101688,-0.40217 0.09483,-0.009 0.09483,-0.009 0.254,0.0161 0.254,0.0161 0.08043,0.0775 0.08043,0.0775 h 0.191911 0.191911 l 0.299155,0.29916 0.299159,0.29915 v 0.45785 0.45785 l -0.0847,0.0523 -0.0847,0.0523 v 0.13332 0.13332 l -0.232837,0.20025 -0.232833,0.20025 z m -0.06908,-0.33986 0.05087,0.001 0.254964,-0.0889 0.254964,-0.0889 0.09634,-0.21143 0.09634,-0.21144 v -0.33273 -0.33273 l -0.201279,-0.13188 -0.201278,-0.13189 -0.243222,-0.0657 -0.243221,-0.0657 -0.148167,0.0325 -0.148167,0.0325 v 0.21103 0.21102 l -0.07306,0.1426 -0.07306,0.14261 -0.05494,0.35983 -0.05494,0.35983 0.191501,0.001 0.1915,10e-4 0.127,0.0821 0.127,0.0821 z m 18.215965,0.32468 -0.1905,0.0271 v -0.13815 -0.13814 l -0.1328,-0.40603 -0.13281,-0.40603 -0.52122,-0.49888 -0.52122,-0.49888 0.24183,-0.0279 0.24183,-0.0279 0.36383,0.35707 0.36383,0.35708 0.13303,-0.31838 0.13303,-0.31839 v -0.15601 -0.15602 l 0.16377,-0.0876 0.16377,-0.0876 h 0.0575 0.0575 l -0.045,0.23284 -0.045,0.23283 -0.10463,0.33867 -0.10464,0.33866 0.008,0.381 0.008,0.381 0.0263,0.29634 0.0263,0.29633 z M 14.831959,64.05008 h -0.0521 l -0.17461,-0.1905 -0.174609,-0.1905 0.209293,-0.67733 0.209294,-0.67734 0.04613,-0.24165 0.04613,-0.24164 -0.15907,0.0891 -0.15907,0.0891 -0.401849,0.38541 -0.401849,0.38542 h -0.129927 -0.129974 l -0.05322,-0.1387 -0.05322,-0.1387 0.406665,-0.34813 0.406664,-0.34814 0.39005,-0.35893 0.39005,-0.35893 0.09979,-9e-4 0.09978,-9e-4 0.140027,0.14002 0.140026,0.14003 -0.0559,0.30447 -0.0559,0.30448 -0.07808,0.0804 -0.07808,0.0804 v 0.18974 0.18974 l -0.08467,0.0523 -0.08467,0.0523 v 0.249 0.24901 l 0.0635,-8.8e-4 0.0635,-8.7e-4 0.449096,-0.42778 0.449096,-0.42779 0.136554,0.0265 0.136555,0.0265 0.03106,0.0933 0.03106,0.0933 -0.782686,0.77454 -0.782687,0.77454 z m 24.598666,-1.9799 -1.77805,0.0466 -0.0602,-0.0602 -0.0602,-0.0602 -0.7441,-0.0689 -0.74411,-0.0689 -0.29633,-0.0496 -0.29633,-0.0496 -0.46567,-0.0908 -0.46567,-0.0908 -0.55033,-0.12468 -0.55033,-0.12468 -0.84667,-0.25199 -0.84666,-0.252 -0.211671,-0.0919 -0.211666,-0.0919 -0.211667,-0.0847 -0.211667,-0.0847 -0.211666,-0.0832 -0.211667,-0.0832 -0.147018,-0.0748 -0.147018,-0.0748 h -0.128149 -0.128148 v -0.0847 -0.0847 h -0.118403 -0.118402 l -0.462853,-0.24348 -0.462853,-0.24347 -0.582911,-0.32274 -0.582912,-0.32275 -0.889,-0.59146 -0.889,-0.59147 -0.77568,-0.61594 -0.77568,-0.61594 -1.002452,-0.99921 -1.002452,-0.99921 -0.679007,-0.84666 -0.679007,-0.84667 -0.358027,-0.52821 -0.358028,-0.52821 v -0.0786 -0.0786 l -0.06744,-0.0282 -0.06744,-0.0282 -0.3702,-0.635 -0.370199,-0.635 -0.325245,-0.61294 -0.325245,-0.61295 -0.175054,-0.44539 -0.175055,-0.44539 -0.111129,-0.254 -0.11113,-0.254 -0.146246,-0.381 -0.146246,-0.381 -0.164497,-0.55033 -0.164497,-0.55033 -0.112655,-0.42334 -0.112656,-0.42333 -0.175257,-0.80433 -0.175256,-0.80434 -0.148941,-0.93133 -0.148941,-0.93133 0.0018,-2.032 0.0018,-2.032 0.188162,-1.1954 0.188161,-1.1954 0.247201,-1.00594 0.247201,-1.00594 0.166179,-0.508 0.166179,-0.508 0.26641,-0.7162 0.26641,-0.71619 0.49852,-1.01947 0.49852,-1.01947 0.256509,-0.42334 0.256509,-0.42333 0.165925,-0.29633 0.165926,-0.29634 0.619817,-0.85998 0.619818,-0.85999 0.337771,-0.41001 0.337772,-0.41002 0.508895,-0.54536 0.508895,-0.54536 0.255341,-0.25897 0.255341,-0.25897 0.675992,-0.59267 0.675993,-0.59267 0.02822,-0.0635 0.02822,-0.0635 h 0.119945 0.119944 v -0.0664 -0.0664 l 0.250919,-0.14822 0.25092,-0.14822 0.120645,-0.12065 0.120646,-0.12065 0.961935,-0.62098 0.961935,-0.62098 0.423333,-0.20791 0.423334,-0.2079 0.04233,-0.0463 0.04233,-0.0463 0.465667,-0.22085 0.465667,-0.22085 0.387821,-0.17291 0.387821,-0.1729 0.458846,-0.18346 0.458845,-0.18347 0.804333,-0.24584 0.80433,-0.24585 0.33867,-0.0888 0.33867,-0.0888 0.26001,-0.0789 0.26001,-0.0789 h 0.22182 0.22183 l 0.0523,-0.0847 0.0523,-0.0847 h 0.41334 0.41334 l 0.0455,-0.0737 0.0455,-0.0737 0.70029,-0.0666 0.70029,-0.0666 2.11667,-0.005 2.11666,-0.005 0.762,0.10655 0.762,0.10655 0.381,0.0473 0.381,0.0473 0.0804,0.0765 0.0804,0.0765 h 0.25222 0.25222 l 0.26002,0.0789 0.26001,0.0789 0.381,0.10108 0.381,0.10108 1.016,0.33628 1.016,0.33628 0.29633,0.12664 0.29633,0.12663 0.3255,0.16141 0.32551,0.1614 h 0.11194 0.11194 l 0.0282,0.0639 0.0282,0.0639 0.59259,0.29597 0.5926,0.29596 0.76207,0.45394 0.76207,0.45394 0.0282,0.0752 0.0282,0.0752 h 0.11995 0.11994 v 0.0847 0.0847 h 0.127 0.127 v 0.0847 0.0847 h 0.0907 0.0907 l 0.10755,0.10583 0.10754,0.10584 0.28082,0.21166 0.28081,0.21167 0.0924,0.085 0.0924,0.085 0.46484,0.38062 0.46484,0.38062 0.74859,0.71967 0.74859,0.71967 0.58657,0.71966 0.58657,0.71967 0.11016,0.127 0.11016,0.127 0.42544,0.59342 0.42544,0.59343 0.11124,0.21091 0.11125,0.21091 0.0536,0.0423 0.0536,0.0423 0.34493,0.59267 0.34494,0.59267 0.34618,0.67733 0.34617,0.67733 0.29459,0.71967 0.29459,0.71967 0.24884,0.71966 0.24883,0.71967 0.10599,0.381 0.106,0.381 0.0658,0.21167 0.0658,0.21166 0.10134,0.508 0.10135,0.508 0.073,0.381 0.073,0.381 0.0906,0.59268 0.0906,0.59267 0.066,1.15018 0.066,1.15017 -0.0629,1.30516 -0.0629,1.30515 -0.097,0.67734 -0.097,0.67733 -0.12401,0.635 -0.12401,0.635 -0.1643,0.64648 -0.1643,0.64647 -0.25026,0.76583 -0.25026,0.76583 -0.293,0.70782 -0.293,0.70782 -0.37062,0.75854 -0.37062,0.75854 -0.33064,0.59267 -0.33064,0.59267 -0.0501,0.0423 -0.0501,0.0423 -0.29124,0.46567 -0.29124,0.46567 -0.32167,0.42333 -0.32167,0.42333 -0.10398,0.13751 -0.10398,0.1375 -0.29633,0.3705 -0.29633,0.37049 -0.46567,0.50219 -0.46567,0.50218 -0.67733,0.65039 -0.67733,0.65039 -0.29634,0.24693 -0.29633,0.24694 -0.508,0.37849 -0.508,0.37849 -0.0282,0.0635 -0.0282,0.0635 h -0.0812 -0.0811 l -0.16722,0.15579 -0.16722,0.15579 -0.23141,0.11925 -0.2314,0.11924 -0.0423,0.0534 -0.0423,0.0534 -0.72162,0.42544 -0.72162,0.42545 -0.35788,0.15504 -0.35788,0.15505 v 0.0647 0.0647 h -0.16933 -0.16933 v 0.0847 0.0847 h -0.12815 -0.12815 l -0.14702,0.0754 -0.14702,0.0754 -0.42333,0.18933 -0.42333,0.18932 -0.16934,0.0634 -0.16933,0.0634 -0.22068,0.0879 -0.22068,0.0879 -1.00699,0.29528 -1.00698,0.29528 -0.254,0.0553 -0.254,0.0553 -0.381,0.0797 -0.381,0.0797 -0.508,0.0952 -0.508,0.0951 -0.67734,0.0773 -0.67733,0.0773 z m -1.20454,-0.31763 0.82741,0.0115 -0.0231,-1.54517 -0.0231,-1.54516 -0.1905,-0.0271 -0.1905,-0.0271 v -0.10103 -0.10103 l 0.1905,-0.0836 0.1905,-0.0836 v -1.651 -1.651 l -0.1905,-0.0271 -0.1905,-0.0271 V 54.78213 54.6702 l 0.21338,-0.0536 0.21337,-0.0536 -0.0229,-1.75479 -0.0229,-1.75479 -0.19545,-0.0277 -0.19545,-0.0277 0.027,-0.14163 0.027,-0.14163 0.18964,-0.0271 0.18963,-0.0271 v -1.77211 -1.77211 h -0.21167 -0.21166 V 46.947 46.77767 h 0.21166 0.21167 v -1.60278 -1.60278 l -0.18963,-0.0271 -0.18964,-0.0271 -0.027,-0.14163 -0.027,-0.14163 0.19545,-0.0277 0.19545,-0.0277 0.0229,-1.7145 0.0229,-1.7145 h -0.12618 -0.12618 l -0.32007,0.17924 -0.32008,0.17925 -0.22474,0.15942 -0.22473,0.15942 h -0.0928 -0.0928 v 0.064 0.064 l -0.27517,0.11971 -0.27516,0.11972 -0.0423,0.0491 -0.0423,0.0491 -0.381,0.20535 -0.381,0.20535 -0.0531,0.0792 -0.0531,0.0792 0.0418,0.15996 0.0418,0.15997 h -0.0957 -0.0957 l -0.15282,-0.0954 -0.15281,-0.0954 -0.33287,0.2082 -0.33287,0.20819 -0.46567,0.25402 -0.46566,0.25402 -0.21167,0.12005 -0.21167,0.12005 -0.0423,0.0425 -0.0423,0.0425 -0.23283,0.12 -0.23283,0.12001 v 0.23969 0.2397 h -0.12201 -0.122 l -0.0523,-0.0847 -0.0523,-0.0847 h -0.15728 -0.15728 l -0.0282,0.0653 -0.0282,0.0653 -1.016002,0.58177 -1.016,0.58177 -0.18984,0.0937 -0.189839,0.0937 -6.61e-4,0.0635 -6.6e-4,0.0635 h -0.160275 -0.160275 l -0.0456,0.11883 -0.0456,0.11884 0.04642,0.1775 0.04642,0.1775 h -0.09569 -0.09569 l -0.158644,-0.0991 -0.158644,-0.0991 -0.877374,0.49234 -0.877374,0.49235 -0.296333,0.17982 -0.296333,0.17981 -0.236744,0.12065 -0.236743,0.12064 0.02508,0.21486 0.02508,0.21487 -0.148166,0.0289 -0.148167,0.029 v -0.0909 -0.0909 h -0.128149 -0.128149 l -0.185039,0.10583 -0.18504,0.10584 -0.08898,0.0673 -0.08898,0.0673 -0.670619,0.37719 -0.670618,0.37719 h -0.07022 -0.07022 l -0.0013,0.0635 -0.0013,0.0635 -0.42861,0.21044 -0.428611,0.21045 0.04681,0.23405 0.04681,0.23406 h -0.167217 -0.167217 v -0.0847 -0.0847 h -0.11012 -0.110121 l -0.227885,0.10584 -0.227886,0.10583 -6.6e-4,0.0635 -6.61e-4,0.0635 h -0.08611 -0.08611 l -0.612392,0.36974 -0.612392,0.36974 -0.275167,0.14043 -0.275166,0.14044 v 0.17073 0.17073 l 0.08496,0.10226 0.08496,0.10226 0.296044,0.44246 0.296044,0.44246 v 0.0867 0.0867 h 0.08467 0.08467 v 0.127 0.127 h 0.06641 0.06641 l 0.151395,0.25629 0.151396,0.25629 0.184359,0.18878 0.184359,0.18879 0.25065,0.33809 0.25065,0.33809 1.154722,1.143 1.154723,1.143 0.249168,0.21167 0.249169,0.21166 0.377459,0.30346 0.377459,0.30346 0.907345,0.60671 0.907344,0.60671 h 0.08043 0.08043 l 0.02822,0.0775 0.02822,0.0776 1.075705,0.55744 1.075704,0.55745 h 0.130796 0.130795 v 0.0847 0.0847 h 0.128149 0.128149 l 0.147018,0.0748 0.147018,0.0748 0.254,0.10442 0.254,0.10442 0.147017,0.0748 0.147018,0.0748 h 0.153548 0.15355 l 0.0804,0.0699 0.0804,0.0699 0.381,0.10904 0.381,0.10904 0.16933,0.0701 0.16934,0.0701 0.97366,0.21518 0.97367,0.21518 0.93133,0.12584 0.93134,0.12585 0.21166,0.0334 0.21167,0.0334 z m 2.28409,-0.019 1.2065,-0.0519 0.55033,-0.0783 0.55034,-0.0783 0.71966,-0.13386 0.71967,-0.13386 0.67733,-0.178 0.67734,-0.17801 0.23387,-0.0441 0.23387,-0.0441 0.0463,-0.0749 0.0463,-0.0749 h 0.16549 0.16548 l 0.14702,-0.0748 0.14702,-0.0748 0.21167,-0.089 0.21166,-0.0889 0.33867,-0.10969 0.33867,-0.10969 0.27774,-0.14991 0.27774,-0.1499 h 0.12443 0.12442 v -0.0847 -0.0847 h 0.11888 0.11888 l 0.74895,-0.39226 0.74896,-0.39226 0.18984,-0.0946 0.18984,-0.0946 6.6e-4,-0.0635 6.6e-4,-0.0635 h 0.127 0.127 v -0.0847 -0.0847 h 0.0893 0.0893 l 0.52452,-0.35396 0.52452,-0.35396 0.0282,-0.0694 0.0282,-0.0694 h 0.11994 0.11995 v -0.0664 -0.0664 l 0.23283,-0.1378 0.23283,-0.13779 0.18006,-0.15563 0.18006,-0.15562 0.40922,-0.33867 0.40922,-0.33866 0.85005,-0.8532 0.85006,-0.8532 0.33867,-0.40014 0.33866,-0.40014 0.0859,-0.10133 0.0859,-0.10133 0.29293,-0.381 0.29293,-0.381 0.0513,-0.0423 0.0513,-0.0423 0.52743,-0.79354 0.52742,-0.79353 -0.0385,-0.10038 -0.0385,-0.10038 -0.87672,-0.50882 -0.87673,-0.50882 -0.21167,-0.12127 -0.21166,-0.12126 -0.0604,-0.0847 -0.0604,-0.0847 -0.38408,0.0147 -0.38408,0.0147 v -0.21312 -0.21313 l -0.16934,-0.0443 -0.16933,-0.0443 v -0.0748 -0.0748 h -0.0735 -0.0735 l -0.62504,-0.3517 -0.62504,-0.35171 -0.4432,-0.28329 -0.44319,-0.2833 h -0.11137 -0.11137 l -0.0988,0.0988 -0.0988,0.0988 -0.037,-0.11999 -0.037,-0.11999 -0.044,-0.1382 -0.044,-0.1382 -0.26048,-0.1153 -0.26049,-0.1153 v -0.064 -0.064 h -0.0928 -0.0928 l -0.23385,-0.16651 -0.23384,-0.16652 -0.83756,-0.47496 -0.83756,-0.47497 -0.127,0.0778 -0.127,0.0778 -0.10583,-0.036 -0.10584,-0.036 v -0.1913 -0.1913 l -0.40216,-0.20381 -0.40217,-0.20381 -0.0282,-0.0635 -0.0282,-0.0635 h -0.11995 -0.11994 v -0.0847 -0.0847 h -0.078 -0.078 l -0.74751,-0.43947 -0.74751,-0.43946 -0.29634,-0.005 -0.29633,-0.005 -0.0264,-0.18573 -0.0264,-0.18574 -0.24874,-0.1101 -0.24873,-0.1101 v -0.064 -0.064 h -0.127 -0.127 v -0.0647 -0.0647 l -0.3175,-0.1474 -0.3175,-0.14741 -0.254,-0.14985 -0.254,-0.14985 -0.40053,-0.2378 -0.40053,-0.2378 -0.26235,0.0576 -0.26235,0.0576 0.0279,-0.18854 0.0279,-0.18854 -0.16897,-0.0948 -0.16897,-0.0948 -0.21203,-0.13825 -0.21203,-0.13826 -0.3175,-0.17924 -0.3175,-0.17925 -0.28474,-0.16137 -0.28473,-0.16137 -0.2021,-0.1138 -0.2021,-0.11379 -0.0423,-0.0423 -0.0423,-0.0423 -0.19394,-0.1087 -0.19394,-0.1087 -0.0812,0.0502 -0.0812,0.0502 v 1.55441 1.55441 l 0.0514,0.13392 0.0514,0.13393 h 0.16028 0.16027 v 0.12909 0.1291 l -0.21166,0.0805 -0.21167,0.0805 v 1.56843 1.56843 h 0.21167 0.21166 v 0.16933 0.16934 h -0.16027 -0.16028 l -0.0514,0.13392 -0.0514,0.13392 v 1.63819 1.63819 l 0.18964,0.0271 0.18963,0.0271 0.027,0.14163 0.027,0.14163 -0.19545,0.0277 -0.19545,0.0277 -0.024,1.60866 -0.024,1.60867 0.0468,0.1905 0.0468,0.1905 h 0.16772 0.16772 v 0.12111 0.12111 l -0.1905,0.0271 -0.1905,0.0271 -0.0241,1.524 -0.0241,1.524 0.0469,0.1905 0.0469,0.1905 h 0.16772 0.16772 v 0.0868 0.0868 l -0.21166,0.0805 -0.21167,0.0805 v 1.53676 1.53676 z m 18.15939,-11.23511 0.18888,0.005 0.0531,-0.21166 0.0531,-0.21167 h 0.0755 0.0755 v -0.16933 -0.16934 h 0.0847 0.0847 v -0.16933 -0.16933 l 0.0635,-6.6e-4 0.0635,-6.7e-4 0.10584,-0.22788 0.10583,-0.22789 v -0.11012 -0.11012 h 0.0847 0.0847 v -0.12442 -0.12443 l 0.16934,-0.30148 0.16933,-0.30148 v -0.12558 -0.12557 l 0.0748,-0.14702 0.0748,-0.14702 0.0867,-0.21166 0.0867,-0.21167 0.13478,-0.36131 0.13478,-0.36131 0.0756,-0.31602 0.0756,-0.31603 0.14088,-0.508 0.14087,-0.508 0.0849,-0.42333 0.0849,-0.42333 0.0823,-0.46567 0.0823,-0.46567 0.10062,-0.71966 0.10062,-0.71967 -0.002,-1.98967 -0.002,-1.98966 -0.10022,-0.71967 -0.10023,-0.71968 -0.0825,-0.51148 -0.0825,-0.51148 -0.29288,-1.13952 -0.29288,-1.13952 -0.13832,-0.42333 -0.13831,-0.42333 -0.0804,-0.1905 -0.0804,-0.1905 -0.0945,-0.23284 -0.0946,-0.23283 -0.0748,-0.14702 -0.0748,-0.14702 v -0.12815 -0.12814 h -0.0847 -0.0847 v -0.11343 -0.11343 l -0.42687,-0.83907 -0.42687,-0.83907 -0.10386,-0.10438 -0.10386,-0.10438 -0.4641,0.2792 -0.4641,0.27919 -0.46567,0.25547 -0.46567,0.25546 -0.21166,0.12005 -0.21167,0.12005 -0.0423,0.0423 -0.0423,0.0423 -0.16933,0.0964 -0.16933,0.0964 0.0185,0.15761 0.0185,0.15762 -0.0386,0.11009 -0.0387,0.11008 -0.18037,-0.16804 -0.18038,-0.16805 -0.18048,0.10029 -0.18048,0.1003 -0.0423,0.0423 -0.0423,0.0423 -0.21167,0.12112 -0.21166,0.12112 -0.508,0.29257 -0.508,0.29257 -0.33858,0.17898 -0.33858,0.17898 -0.15413,0.13876 -0.15412,0.13876 0.027,0.14879 0.027,0.14879 -0.10583,0.037 -0.10583,0.037 v -0.0917 -0.0917 h -0.21167 -0.21167 v 0.0748 0.0748 l -0.14816,0.0499 -0.14817,0.0499 -0.254,0.15063 -0.254,0.15062 -0.508,0.28803 -0.508,0.28802 -0.26357,0.14837 -0.26356,0.14837 -0.2021,0.1138 -0.2021,0.11379 -0.0626,0.0847 -0.0626,0.0847 0.04,0.10903 0.04,0.10904 -0.13412,0.0515 -0.13412,0.0515 -0.0732,-0.11817 -0.0732,-0.11817 -0.23578,0.15339 -0.23578,0.15338 -0.14816,0.047 -0.14817,0.047 v 0.0748 0.0748 h -0.127 -0.127 v 0.064 0.064 l -0.27053,0.11975 -0.27053,0.11975 -0.69174,0.40713 -0.69173,0.40714 0.0408,0.21345 0.0408,0.21346 h -0.13687 -0.13687 v -0.0847 -0.0847 h -0.12442 -0.12443 l -0.2873,0.16137 -0.28731,0.16137 -0.2021,0.1138 -0.2021,0.11379 -0.0423,0.0423 -0.0423,0.0423 -0.33867,0.18103 -0.33866,0.18104 -0.4916,0.2724 -0.4916,0.27241 0.0538,0.24506 0.0538,0.24506 h -0.13373 -0.13372 v -0.0756 -0.0756 l -0.13469,-0.0517 -0.13469,-0.0517 -0.23821,0.16963 -0.23822,0.16963 h -0.0928 -0.0928 v 0.0689 0.0689 l -0.29633,0.11628 -0.29633,0.11627 v 0.0689 0.0689 h -0.16934 -0.16933 v 0.0847 0.0847 h -0.127 -0.127 v 0.0847 0.0847 h -0.0817 -0.0817 l -0.40511,0.25691 -0.40511,0.25691 v 0.0929 0.0929 l 0.254,0.13893 0.254,0.13893 0.53371,0.31562 0.5337,0.31562 h 0.0801 0.0801 v 0.0748 0.0748 l 0.14817,0.0485 0.14816,0.0485 0.36211,0.21539 0.36211,0.21538 h 0.16706 0.16706 v -0.0847 -0.0847 h 0.127 0.127 v 0.11007 0.11006 l -0.0812,0.0812 -0.0812,0.0812 0.27168,0.17677 0.27169,0.17677 0.742,0.43631 0.74201,0.43632 h 0.0835 0.0835 v 0.064 0.064 l 0.27516,0.11972 0.27517,0.11972 0.059,0.0892 0.059,0.0892 0.21725,-0.20409 0.21725,-0.2041 0.10048,0.10048 0.10047,0.10048 -0.1016,0.1016 -0.1016,0.1016 v 0.10387 0.10386 l 0.23284,0.11978 0.23283,0.11978 0.95738,0.56376 0.95739,0.56375 h 0.0798 0.0798 v 0.064 0.064 l 0.25768,0.11406 0.25767,0.11405 0.15807,-0.18225 0.15806,-0.18226 0.0525,0.085 0.0525,0.085 -0.0539,0.21477 -0.0539,0.21477 0.15715,0.0581 0.15714,0.0581 0.0423,0.0485 0.0423,0.0485 0.21167,0.12192 0.21166,0.12192 0.80434,0.46274 0.80433,0.46273 0.18984,0.0927 0.18984,0.0927 6.6e-4,0.0635 6.6e-4,0.0635 h 0.16363 0.16363 l 0.0552,-0.17399 0.0552,-0.174 0.0987,0.0348 0.0986,0.0348 -0.0228,0.29214 -0.0228,0.29215 0.29795,0.1169 0.29794,0.11691 v 0.059 0.059 l 0.14817,0.0485 0.14817,0.0485 0.33866,0.20512 0.33867,0.20511 0.5373,0.30661 0.5373,0.3066 h 0.1085 0.1085 l 0.10463,-0.12607 0.10462,-0.12606 0.08,0.0495 0.08,0.0495 -0.0505,0.22992 -0.0505,0.22991 0.23604,0.12172 0.23604,0.12173 0.0423,0.0425 0.0423,0.0425 0.21166,0.12005 0.21167,0.12005 0.46567,0.25396 0.46566,0.25395 0.29634,0.19252 0.29633,0.19251 z m -38.854638,-0.1679 0.142417,-0.004 0.423334,-0.25419 0.423333,-0.2542 0.148167,-0.0485 0.148166,-0.0485 v -0.059 -0.059 l 0.296334,-0.11627 0.296333,-0.11627 v -0.0531 -0.0531 l 0.296333,-0.11627 0.296334,-0.11628 v -0.22408 -0.22409 l 0.05663,-0.0566 0.05663,-0.0566 0.142985,0.1294 0.142985,0.1294 0.528186,-0.29855 0.528186,-0.29854 h 0.0423 0.0423 l 0.224737,-0.15942 0.224736,-0.15943 0.305901,-0.17128 0.3059,-0.17128 0.2021,-0.1138 0.202099,-0.11379 0.04233,-0.0485 0.04233,-0.0485 0.153586,-0.0567 0.153587,-0.0567 -0.02447,-0.14874 -0.02447,-0.14874 0.06979,-0.11135 0.06979,-0.11135 0.156378,0.14152 0.156378,0.14152 0.250453,-0.17834 0.250453,-0.17834 h 0.0423 0.0423 l 0.5373,-0.30669 0.537301,-0.30669 0.296333,-0.17097 0.296333,-0.17097 0.254,-0.14336 0.254,-0.14336 0.04233,-0.23983 0.04233,-0.23982 0.105833,-0.0352 0.105834,-0.0352 v 0.0917 0.0917 h 0.194733 0.194733 l 0.08043,-0.0767 0.08043,-0.0767 0.338667,-0.18928 0.338666,-0.18929 0.381,-0.2118 0.381,-0.21179 0.211667,-0.14394 0.211667,-0.14393 0.27517,-0.11863 0.27516,-0.11863 v -0.0541 -0.0541 l 0.17982,-0.047 0.17981,-0.047 -0.0531,-0.21166 -0.0531,-0.21166 0.0781,-0.0483 0.0782,-0.0483 0.13278,0.13277 0.13277,0.13278 0.4845,-0.2659 0.4845,-0.26589 0.22812,-0.16244 0.22812,-0.16243 h 0.041 0.041 l 0.58089,-0.33953 0.58089,-0.33952 -0.0272,-0.21081 -0.0272,-0.21081 h 0.16833 0.16834 l 0.0355,0.10583 0.0355,0.10584 0.24669,-0.12687 0.24668,-0.12686 0.0423,-0.0425 0.0423,-0.0425 0.2021,-0.1138 0.2021,-0.11379 0.28473,-0.16137 0.28474,-0.16137 0.3175,-0.17898 0.3175,-0.17899 0.35983,-0.21006 0.35983,-0.21006 v -0.0709 -0.0709 l -0.23283,-0.1618 -0.23283,-0.1618 -0.27517,-0.11863 -0.27517,-0.11863 v -0.064 -0.064 h -0.11994 -0.11995 l -0.0282,-0.0635 -0.0282,-0.0635 -0.33867,-0.17973 -0.33866,-0.17973 -0.40843,-0.23317 -0.40843,-0.23318 -0.20238,0.0922 -0.20238,0.0922 -0.0456,-0.0738 -0.0456,-0.0738 0.0472,-0.1229 0.0472,-0.12289 -0.40672,-0.25458 -0.40671,-0.25458 -0.29634,-0.15933 -0.29633,-0.15934 -0.0423,-0.0491 -0.0423,-0.0491 -0.27516,-0.11972 -0.27517,-0.11972 v -0.064 -0.064 l -0.10583,-0.002 -0.10584,-0.002 -0.21166,-0.16557 -0.21167,-0.16558 -0.14817,-0.002 -0.14816,-0.002 v 0.0847 0.0847 h -0.127 -0.127 v -0.254 -0.254 h -0.0719 -0.0719 l -0.772442,-0.46566 -0.772437,-0.46567 h -0.08695 -0.08695 v -0.0748 -0.0748 l -0.148167,-0.047 -0.148167,-0.047 -0.254,-0.15339 -0.254,-0.15338 -0.02822,-0.0635 -0.02822,-0.0635 H 29.395841 29.23856 l -0.05233,0.0847 -0.05233,0.0847 h -0.118019 -0.11802 l 0.01718,-0.21899 0.01718,-0.219 -1.058333,-0.62884 -1.058334,-0.62884 -0.3175,-0.14581 -0.3175,-0.1458 v -0.0647 -0.0647 h -0.169333 -0.169333 v 0.0847 0.0847 h -0.167217 -0.167217 l 0.0508,-0.254 0.0508,-0.254 h -0.101162 -0.101161 l -0.353922,-0.23581 -0.353921,-0.2358 -0.465667,-0.2432 -0.465667,-0.2432 -0.211666,-0.14494 -0.211667,-0.14494 -0.343573,-0.17382 -0.343573,-0.17381 -0.103696,0.16604 -0.103696,0.16605 -0.08876,-0.0549 -0.08876,-0.0548 0.04837,-0.19275 0.04838,-0.19274 -0.105015,-0.0853 -0.105015,-0.0853 -0.3175,-0.17836 -0.3175,-0.17835 -0.275167,-0.15832 -0.275167,-0.15832 -0.590698,-0.34504 -0.590698,-0.34504 -0.133687,0.14352 -0.133686,0.14353 -0.121783,0.27517 -0.121784,0.27516 h -0.064 -0.064 v 0.16934 0.16933 h -0.08467 -0.08467 v 0.16933 0.16934 h -0.08467 -0.08467 v 0.12449 0.12449 l -0.202846,0.44701 -0.202847,0.44701 -0.349758,1.05833 -0.349759,1.05833 -0.08239,0.26001 -0.0824,0.26001 v 0.1795 0.17949 l -0.07572,0.0468 -0.07572,0.0468 -0.05397,0.36036 -0.05397,0.36037 -0.04785,0.381 -0.04785,0.381 -0.07646,0.0804 -0.07646,0.0804 v 0.51647 0.51647 l -0.08839,0.0884 -0.08839,0.0884 0.038,2.44737 0.038,2.44738 0.09121,0.59267 0.09121,0.59266 0.05206,0.42334 0.05206,0.42333 0.07646,0.0804 0.07646,0.0804 v 0.31673 0.31674 l 0.08467,0.0523 0.08467,0.0523 v 0.17949 0.1795 l 0.09506,0.30234 0.09506,0.30235 0.07427,0.14701 0.07427,0.14702 v 0.0972 0.0972 l 0.306382,0.85648 0.306381,0.85649 0.159285,0.3334 0.159285,0.3334 v 0.10405 0.10404 l 0.0635,0.0282 0.0635,0.0282 0.365583,0.74084 0.365583,0.74083 z m 19.171248,-11.25764 0.0635,5.2e-4 v -1.69543 -1.69544 l -0.21167,-0.0805 -0.21166,-0.0805 v -0.1232 -0.12321 l 0.1905,-0.0271 0.1905,-0.0271 v -1.60867 -1.60866 l -0.1905,-0.0271 -0.1905,-0.0271 v -0.11194 -0.11193 l 0.21166,-0.0531 0.21167,-0.0531 v -1.77477 -1.77478 l -0.21167,-0.0531 -0.21166,-0.0531 v -0.11782 -0.11782 h 0.16772 0.16772 l 0.0468,-0.1905 0.0468,-0.1905 -0.0241,-1.56633 -0.0241,-1.56634 -0.1905,-0.0271 -0.1905,-0.0271 v -0.16344 -0.16345 h 0.21342 0.21342 l -0.0229,-1.7145 -0.0229,-1.7145 -0.1905,-0.0271 -0.1905,-0.0271 v -0.11193 -0.11193 l 0.21166,-0.0531 0.21167,-0.0531 V 18.5046 16.98926 l -0.10583,-0.0401 -0.10584,-0.0401 -0.84666,0.0355 -0.84667,0.0355 -0.59267,0.0854 -0.59266,0.0854 -0.55034,0.0877 -0.55033,0.0877 -0.86458,0.20509 -0.86458,0.2051 -1.01714,0.33759 -1.01714,0.33759 -0.404279,0.1785 -0.404278,0.17849 -0.325501,0.1616 -0.325502,0.1616 h -0.111943 -0.111943 l -0.02822,0.0635 -0.02822,0.0635 -0.423333,0.21105 -0.423333,0.21104 -0.63333,0.37054 -0.63333,0.37054 -0.50967,0.34388 -0.50967,0.34387 -0.02822,0.0694 -0.02822,0.0694 h -0.103979 -0.10398 l -0.165474,0.14816 -0.165473,0.14817 -0.506658,0.42226 -0.506658,0.42227 -0.381,0.33826 -0.381,0.33826 -0.592667,0.60504 -0.592666,0.60505 -0.341516,0.37009 -0.341515,0.3701 -0.206031,0.29634 -0.206032,0.29633 -0.08745,0.0964 -0.08745,0.0964 -0.157384,0.19051 -0.157383,0.19052 -0.584979,0.89384 -0.58498,0.89385 0.02859,0.0858 0.02859,0.0858 0.586774,0.34628 0.586773,0.34628 0.381,0.20754 0.381,0.20754 0.04233,0.0425 0.04233,0.0425 0.238059,0.1228 0.238058,0.12281 0.162959,-0.10177 0.16296,-0.10177 h 0.04348 0.04348 l 6.99e-4,0.23283 6.98e-4,0.23283 0.316802,0.17651 0.316801,0.1765 1.128428,0.65933 1.128428,0.65934 0.09501,-0.095 0.09501,-0.095 h 0.110067 0.110066 v 0.254 0.254 h 0.0862 0.0862 l 0.557456,0.33867 0.557457,0.33866 h 0.07601 0.07601 v 0.0847 0.0847 h 0.07767 0.07767 l 0.659934,0.39016 0.659934,0.39016 0.150247,-0.0938 0.150246,-0.0938 h 0.08581 0.08582 v 0.254 0.254 h 0.127 0.127 v 0.0689 0.0689 l 0.296333,0.11627 0.296334,0.11627 v 0.0689 0.0689 h 0.127 0.127 v 0.0847 0.0847 h 0.169333 0.169333 v 0.0748 0.0748 l 0.148167,0.0486 0.148167,0.0486 0.338664,0.21465 0.33867,0.21465 0.27331,0.14243 0.27332,0.14243 0.17118,-0.15492 0.17119,-0.15493 0.009,0.11896 0.009,0.11896 0.0122,0.15601 0.0122,0.15602 0.381,0.21382 0.381,0.21383 0.22474,0.15933 0.22473,0.15933 h 0.0928 0.0928 v 0.0847 0.0847 h 0.16934 0.16933 v 0.0748 0.0748 l 0.14817,0.0516 0.14817,0.0516 0.381,0.20734 0.381,0.20735 0.0804,-0.0797 0.0804,-0.0797 h 0.10445 0.10444 l 0.0268,0.22587 0.0268,0.22587 0.33867,0.19926 0.33866,0.19926 0.127,0.0548 0.127,0.0548 0.33867,0.22117 0.33867,0.22117 0.23283,0.11755 0.23283,0.11755 v 0.0704 0.0704 h 0.11733 0.11732 l 0.24251,0.12648 0.24251,0.12648 z m 0.44223,-0.0841 h 0.12473 l 0.3621,-0.21539 0.36211,-0.21539 0.14816,-0.0485 0.14817,-0.0485 v -0.059 -0.059 l 0.29633,-0.11627 0.29634,-0.11628 v -0.0689 -0.0689 h 0.0801 0.0801 l 0.51866,-0.30398 0.51866,-0.30398 -0.0487,-0.127 -0.0487,-0.12699 0.0456,-0.0738 0.0456,-0.0738 0.19792,0.0902 0.19792,0.0902 0.41289,-0.23325 0.41289,-0.23326 0.33866,-0.17762 0.33867,-0.17761 0.10978,-0.10374 0.10979,-0.10373 0.31355,-0.14587 0.31355,-0.14585 0.0423,-0.0529 0.0423,-0.0529 0.15359,-0.0567 0.15359,-0.0567 -0.0152,-0.14874 -0.0152,-0.14874 0.01,-0.11558 0.01,-0.11557 0.1983,0.12994 0.19831,0.12993 0.37319,-0.21605 0.3732,-0.21606 0.508,-0.29014 0.508,-0.29014 0.14816,-0.0472 0.14817,-0.0472 v -0.0748 -0.0748 h 0.127 0.127 v -0.064 -0.064 l 0.254,-0.11243 0.254,-0.11243 v -0.28924 -0.28923 h 0.0743 0.0743 l 0.1054,0.127 0.1054,0.127 h 0.0828 0.0828 l 0.85934,-0.48038 0.85934,-0.48038 0.0282,-0.07 0.0282,-0.07 h 0.15522 0.15523 l 0.0282,-0.0635 0.0282,-0.0635 0.254,-0.15339 0.254,-0.15338 0.14817,-0.047 0.14816,-0.047 v -0.24413 -0.24412 h 0.11007 0.11007 l 0.0842,0.0842 0.0842,0.0842 0.5466,-0.29971 0.54661,-0.29971 0.33867,-0.20683 0.33866,-0.20682 0.29634,-0.14471 0.29633,-0.14472 0.0423,-0.0467 0.0423,-0.0468 0.16933,-0.0933 0.16933,-0.0933 0.0283,-0.20302 0.0283,-0.20302 0.0675,-0.0705 0.0675,-0.0704 0.16688,0.10422 0.16688,0.10422 0.26643,-0.11793 0.26644,-0.11794 v -0.0578 -0.0578 l 0.10583,-0.0274 0.10583,-0.0274 0.80434,-0.44843 0.80433,-0.44843 0.19087,-0.14488 0.19086,-0.14487 -0.17201,-0.2957 -0.17202,-0.29569 -0.0499,-0.14817 -0.0499,-0.14816 h -0.0748 -0.0748 v -0.11995 -0.11994 l -0.0694,-0.0282 -0.0694,-0.0282 -0.3714,-0.55033 -0.3714,-0.55033 -0.17306,-0.1826 -0.17306,-0.18259 -0.127,-0.16837 -0.127,-0.16837 -0.67734,-0.74154 -0.67733,-0.74154 -0.42006,-0.38917 -0.42006,-0.38916 -0.23321,-0.22343 -0.23322,-0.22342 -0.36272,-0.28239 -0.36273,-0.28238 -0.0423,-0.0501 -0.0423,-0.0501 -0.42333,-0.28672 -0.42333,-0.28672 -0.11182,-0.1098 -0.11182,-0.1098 -0.39618,-0.22883 -0.39618,-0.22882 -0.0423,-0.0529 -0.0423,-0.0529 -0.84687,-0.45918 -0.84687,-0.45917 -0.40196,-0.1905 -0.40197,-0.1905 -0.40216,-0.18006 -0.40217,-0.18006 -0.16933,-0.0654 -0.16934,-0.0654 -0.29633,-0.10176 -0.29633,-0.10176 -0.16934,-0.0676 -0.16933,-0.0676 -0.254,-0.0902 -0.254,-0.0902 -0.762,-0.20301 -0.762,-0.20301 -0.46567,-0.0935 -0.46566,-0.0935 -0.254,-0.0521 -0.254,-0.052 -0.55034,-0.0784 -0.55033,-0.0784 -1.26232,-0.0808 -1.26232,-0.0808 -0.0712,0.044 -0.0712,0.044 v 1.51739 1.51739 l 0.21167,0.0531 0.21166,0.0531 v 0.11782 0.11782 h -0.16027 -0.16028 l -0.0514,0.13392 -0.0514,0.13393 v 1.5615 1.56151 l 0.21167,0.0805 0.21166,0.0805 v 0.12909 0.1291 h -0.16027 -0.16028 l -0.0514,0.13392 -0.0514,0.13393 v 1.51015 1.51015 l 0.0514,0.13392 0.0514,0.13393 h 0.16028 0.16027 v 0.0868 0.0868 l -0.21166,0.0805 -0.21167,0.0805 v 1.7822 1.78219 l 0.21167,0.0805 0.21166,0.0805 v 0.0868 0.0868 h -0.16027 -0.16028 l -0.0514,0.13393 -0.0514,0.13392 v 1.47684 1.47684 l 0.21167,0.0805 0.21166,0.0805 v 0.0889 0.0888 l -0.21166,0.0805 -0.21167,0.0805 v 1.65311 1.6531 z m 1.99194,-2.96334 h -0.84667 v -1.13395 -1.13394 l 0.13393,-0.0514 0.13392,-0.0514 h 0.57882 0.57881 l 0.13393,0.0514 0.13392,0.0514 v 0.16027 0.16028 h -0.635 -0.635 v 0.25239 0.25238 l 0.21303,0.0535 0.21302,0.0535 0.17707,-0.0463 0.17706,-0.0463 0.20258,0.077 0.20258,0.077 v 0.1291 0.12909 l -0.48684,10e-4 -0.48683,10e-4 -0.11324,0.0718 -0.11324,0.0718 0.0286,0.20209 0.0286,0.2021 0.42333,0.0221 0.42333,0.0221 0.1905,0.043 0.1905,0.043 v 0.16772 0.16773 z m -0.0283,-4.1794 -0.6067,0.0276 -0.10584,-0.0478 -0.10583,-0.0478 v -1.13595 -1.13594 h 0.63218 0.63218 l 0.29915,0.29915 0.29916,0.29916 v 0.55308 0.55307 l -0.098,0.18319 -0.098,0.18319 -0.12075,0.12075 -0.12076,0.12076 z m -0.006,-0.39261 h 0.39613 l 0.11247,-0.14816 0.11248,-0.14817 0.003,-0.47647 0.003,-0.47646 -0.13162,-0.10924 -0.13161,-0.10923 -0.35522,-0.007 -0.35521,-0.007 -0.0245,0.74083 -0.0245,0.74083 z m -0.0909,-3.3876 -0.34099,-9.4e-4 -0.25963,-0.2047 -0.25962,-0.20471 -0.11154,-0.33796 -0.11154,-0.33797 0.11717,-0.39727 0.11716,-0.39728 0.20205,-0.20211 0.20204,-0.20212 h 0.48049 0.48049 l 0.1853,0.17263 0.1853,0.17263 v 0.11464 0.11465 l -0.14016,0.0538 -0.14017,0.0538 -0.18279,-0.17173 -0.1828,-0.17173 -0.20621,0.003 -0.20621,0.003 -0.13094,0.10314 -0.13095,0.10314 -0.11009,0.27019 -0.1101,0.27018 0.0971,0.29438 0.0972,0.29438 0.20441,0.13393 0.20441,0.13394 h 0.12744 0.12744 l 0.18779,-0.254 0.1878,-0.254 h 0.13929 0.1393 l 0.0531,0.0531 0.0531,0.0531 -0.12314,0.23813 -0.12314,0.23813 -0.18865,0.13214 -0.18866,0.13214 z m -0.0746,-3.992 -0.68967,0.0287 -0.0635,-0.064 -0.0635,-0.064 v -1.12889 -1.12888 h 0.7037 0.7037 l 0.1853,0.17263 0.1853,0.17263 v 0.2457 0.24571 l -0.0847,0.0523 -0.0847,0.0523 v 0.15397 0.15397 l 0.127,0.1054 0.127,0.1054 v 0.27285 0.27284 l -0.17816,0.16129 -0.17816,0.16129 z m 0.0935,-0.42667 0.48684,-0.0254 0.0257,-0.22177 0.0257,-0.22177 -0.15272,-0.0382 -0.15272,-0.0382 -0.35984,0.036 -0.35983,0.036 v 0.24933 0.24933 z m -0.0155,-0.99906 h 0.47129 l -0.0268,-0.23283 -0.0268,-0.23284 -0.4445,-0.0256 -0.4445,-0.0256 v 0.25842 0.25843 z m -0.98621,-2.37067 h -0.0778 v -0.0807 -0.0807 l 0.0952,-0.23682 0.0952,-0.23682 0.084,-0.21166 0.084,-0.21167 0.0748,-0.14702 0.0748,-0.14702 v -0.12929 -0.1293 l 0.0748,-0.14702 0.0748,-0.14702 0.11106,-0.23696 0.11107,-0.23697 0.25359,0.0253 0.2536,0.0253 0.14744,0.42333 0.14745,0.42334 0.25035,0.69578 0.25035,0.69579 -0.17463,0.0554 -0.17462,0.0554 -0.11228,-0.15355 -0.11229,-0.15356 v -0.11082 -0.11082 l -0.14817,-0.01 -0.14816,-0.01 -0.31499,-0.003 -0.31498,-0.003 -0.12952,0.10749 -0.12951,0.10749 v 0.10757 0.10758 l -0.13393,0.0514 -0.13392,0.0514 z m 1.14992,-0.97366 0.0847,-0.018 -0.0127,-0.26848 -0.0127,-0.26848 -0.10269,-0.12373 -0.10269,-0.12373 -0.0751,0.0464 -0.0751,0.0464 v 0.16434 0.16434 h -0.0847 -0.0847 v 0.16344 0.16345 l 0.1905,0.0361 0.1905,0.0361 z m -28.172831,42.4594 -0.4445,-9.4e-4 L 12.56808,61.54407 12.291235,61.3259 12.165913,61.08355 12.040591,60.8412 v -0.2624 -0.26241 l 0.127919,-0.24737 0.127918,-0.24737 0.315069,-0.21409 0.315069,-0.2141 h 0.271167 0.271168 l 0.196012,0.0757 0.196011,0.0757 0.17721,0.15711 0.177209,0.15712 0.09796,0.18493 0.09796,0.18494 v 0.4289 0.4289 l -0.338667,0.33866 -0.338667,0.33867 z m -0.02117,-0.43001 0.254,0.004 0.18059,-0.14628 0.180591,-0.14629 0.08671,-0.17023 0.08671,-0.17024 -0.04763,-0.2531 -0.04763,-0.25309 -0.219667,-0.1904 -0.219666,-0.1904 -0.275167,-10e-5 -0.275167,-1e-4 v 0.0847 0.0847 l -0.148166,6.6e-4 -0.148167,6.6e-4 -0.105833,0.22789 -0.105833,0.22788 v 0.23712 0.23712 h 0.08467 0.08467 v 0.11406 0.11407 l 0.1905,0.0919 0.1905,0.0919 z m 52.455231,0.0885 -0.0466,-0.004 -0.37829,-0.31369 -0.37829,-0.3137 -0.36477,-0.35983 -0.36478,-0.35983 h -0.0824 -0.0824 v -0.11104 -0.11103 l 0.16933,-0.18176 0.16933,-0.18176 v -0.043 -0.043 l 0.31402,-0.34153 0.31402,-0.34153 h 0.31768 0.31769 l 0.17263,0.1853 0.17263,0.1853 v 0.28036 0.28037 h 0.55604 0.55604 l -0.0592,-0.1905 -0.0592,-0.1905 -0.0735,-0.0282 -0.0735,-0.0282 v -0.11995 -0.11994 h -0.064 -0.064 l -0.10539,-0.2381 -0.10539,-0.23809 -0.16928,-0.1817 -0.16928,-0.1817 v -0.0994 -0.0994 l -0.17784,-0.15425 -0.17784,-0.15424 0.18371,-0.25799 0.1837,-0.258 0.18464,0.0407 0.18463,0.0407 0.71013,0.17111 0.71014,0.17111 h 0.14152 0.14152 l 0.16115,0.11783 0.16115,0.11784 -0.11613,0.13993 -0.11613,0.13992 -0.21934,-0.0459 -0.21934,-0.046 -0.0891,0.0634 -0.0891,0.0633 -0.22836,0.30432 -0.22836,0.30433 v 0.17751 0.17751 l 0.0847,0.0523 0.0847,0.0523 -10e-4,0.14317 -0.001,0.14317 -0.24263,0.27516 -0.24263,0.27517 h -0.42937 -0.42937 l -0.23681,0.10484 -0.23682,0.10485 -0.10583,0.10077 -0.10584,0.10078 0.002,0.11188 0.002,0.11188 0.29167,0.21167 0.29167,0.21166 0.002,0.0889 0.002,0.0889 -0.1016,0.1016 -0.1016,0.1016 z m -0.76623,-1.27123 0.127,10e-4 0.23889,-0.33765 0.23889,-0.33764 -0.0281,-0.14738 -0.0281,-0.14738 -0.17269,-0.0248 -0.17269,-0.0248 -0.27094,0.29774 -0.27095,0.29775 v 0.0905 0.0905 l 0.10584,0.12021 0.10583,0.1202 z m 1.98967,-1.80597 0.0847,-0.0229 0.12576,-0.22305 0.12576,-0.22305 -0.0834,-0.0766 -0.0834,-0.0766 -0.3175,-0.048 -0.3175,-0.048 v 0.12945 0.12945 l 0.1905,0.24118 0.1905,0.24119 z m -55.583671,1.64167 h -0.169333 l 0.0014,-0.1905 0.0014,-0.1905 0.640402,-0.46567 0.640402,-0.46566 0.141381,-0.0847 0.141381,-0.0847 0.05495,-0.0758 0.05496,-0.0758 0.135545,0.052 0.135545,0.052 -5.79e-4,0.15083 -5.78e-4,0.15082 -0.316922,0.21156 -0.316921,0.21155 -0.108914,0.10298 -0.108914,0.10298 -0.25092,0.14822 -0.250919,0.14822 v 0.0664 0.0664 h -0.127 -0.127 v 0.0847 0.0847 z m -0.381348,-0.93133 h -0.219712 l -0.274234,-0.27517 -0.274234,-0.27517 -0.102569,-0.23682 -0.10257,-0.23681 v -0.14651 -0.14651 l 0.134628,-0.19221 0.134628,-0.19221 0.119372,0.0991 0.119372,0.0991 0.0027,0.34947 0.0027,0.34946 0.112474,0.14817 0.112475,0.14817 h 0.233369 0.23337 l -0.05581,-0.23284 -0.05581,-0.23283 -0.08157,-0.37622 -0.08157,-0.37622 0.05516,-0.17379 0.05516,-0.17379 0.135846,-0.10346 0.135847,-0.10347 0.241197,-0.003 0.241198,-0.003 0.239411,0.25629 0.239412,0.25629 0.05487,0.2498 0.05487,0.24981 -0.05588,0.17605 -0.05588,0.17605 -0.139645,-0.0269 -0.139645,-0.0269 -0.0524,-0.32234 -0.05239,-0.32234 -0.138789,-0.13879 -0.138789,-0.13879 -0.09784,0.0978 -0.09784,0.0978 0.09723,0.48415 0.09723,0.48416 v 0.15906 0.15906 l -0.207818,0.20782 -0.207819,0.20782 z m 57.733959,-1.69334 h -0.11794 v -0.0847 -0.0847 h -0.0914 -0.0914 l -0.79763,-0.51671 -0.79762,-0.5167 v -0.0417 -0.0417 l 0.17977,-0.25246 0.17977,-0.25247 0.18006,0.0439 0.18006,0.0439 0.66405,0.056 0.66405,0.056 -0.029,-0.14303 -0.0291,-0.14304 -0.5715,-0.30471 -0.5715,-0.30471 0.001,-0.0901 0.001,-0.0901 0.0736,-0.11621 0.0736,-0.11621 0.58126,0.32008 0.58126,0.32007 0.3568,0.17714 0.3568,0.17713 0.0473,0.11777 0.0473,0.11776 -0.13087,0.19974 -0.13087,0.19973 h -0.93975 -0.93975 l 0.10309,0.12422 0.1031,0.12422 0.54227,0.30326 0.54227,0.30326 v 0.0736 0.0736 l -0.0514,0.13393 -0.0514,0.13392 z M 9.522802,57.27678 h -0.07866 l -0.05644,-0.0565 -0.05644,-0.0564 v -0.10344 -0.10343 l 0.555223,-0.34812 0.555223,-0.34812 h 0.06381 0.06381 l 0.178083,-0.16591 0.178083,-0.16591 0.207406,-0.0521 0.207407,-0.0521 0.04597,0.1198 0.04598,0.11981 -0.05567,0.077 -0.05567,0.077 -0.254,0.17738 -0.254,0.17739 -0.296334,0.15193 -0.296333,0.15193 -0.04233,0.0517 -0.04233,0.0517 -0.267063,0.14817 -0.267064,0.14817 z M 9.387698,56.2558 9.119587,56.2508 8.95383,56.14994 8.788072,56.04909 l -0.09604,-0.0864 -0.09604,-0.0864 -0.09804,-0.18319 -0.09804,-0.18318 0.0019,-0.40774 0.0019,-0.40773 L 8.549996,54.51118 8.69628,54.3279 9.016355,54.15134 9.33643,53.97479 h 0.336092 0.336091 v 0.0847 0.0847 h 0.122691 0.122692 l 0.215975,0.28316 0.215976,0.28316 v 0.42745 0.42745 l -0.125709,0.0482 -0.125708,0.0482 -0.07809,-0.14591 -0.07809,-0.14592 0.04124,-0.21572 0.04124,-0.21573 -0.252408,-0.27021 -0.252409,-0.2702 H 9.683828 9.511642 l -0.209048,0.0795 -0.209048,0.0795 -0.177464,0.19048 -0.177464,0.19049 v 0.19506 0.19505 l 0.184602,0.21231 0.184602,0.21232 h 0.235752 0.235753 l 0.07621,0.14816 0.07621,0.14817 -0.03795,0.10583 -0.03795,0.10584 z m 60.166927,-1.35391 -0.23704,-0.004 -0.35983,-0.17451 -0.35983,-0.17451 v -0.1176 -0.11761 l -0.0635,-6.6e-4 -0.0635,-6.6e-4 -0.10584,-0.22788 -0.10583,-0.22789 V 53.66178 53.467 h 0.0847 0.0847 v -0.11012 -0.11013 l 0.10488,-0.22222 0.10487,-0.22223 0.22569,-0.13332 0.22569,-0.13332 h 0.21977 0.21977 v 0.12882 0.12881 l -0.23283,0.0992 -0.23284,0.0992 -0.14628,0.17419 -0.14628,0.1742 8.1e-4,0.33866 8.1e-4,0.33867 0.10483,0.127 0.10483,0.127 0.18766,0.10583 0.18766,0.10584 0.19165,-1.1e-4 0.19165,-1e-4 0.23283,-0.20025 0.23283,-0.20025 v -0.0971 -0.0971 l 0.10418,-0.16681 0.10418,-0.16682 -0.1441,-0.1441 -0.1441,-0.1441 -0.16051,0.18506 -0.16051,0.18507 h -0.13823 -0.13824 v -0.13121 -0.1312 l 0.13881,-0.27096 0.13882,-0.27096 0.0865,-0.0558 0.0865,-0.0558 0.36734,0.17847 0.36735,0.17847 v 0.42019 0.42019 l -0.21496,0.36681 -0.21496,0.3668 -0.2465,0.12747 -0.2465,0.12747 z M 7.905691,54.31344 H 7.750128 L 7.397691,53.56118 7.045254,52.80891 v -0.0499 -0.0499 l 0.275167,-0.14733 0.275166,-0.14734 0.550334,-0.24257 0.550333,-0.24258 0.237375,-0.0733 0.237375,-0.0733 0.344568,0.71145 L 9.86014,53.20559 9.81002,53.3362 9.7599,53.46681 H 9.643706 9.527512 L 9.25918,52.91647 8.990848,52.36614 H 8.839317 8.687785 l -0.08903,0.089 -0.08902,0.089 0.03963,0.20731 0.03963,0.20731 h 0.0748 0.0748 v 0.16933 0.16933 h 0.09029 0.09029 l -0.02679,0.23211 -0.02679,0.23211 -0.127,0.0213 -0.127,0.0213 L 8.364729,53.29687 8.117863,52.7895 H 7.918039 7.717748 l -0.05298,0.13806 -0.05298,0.13805 0.149687,0.30645 0.149687,0.30644 0.07528,0.14702 0.07528,0.14702 v 0.17048 0.17048 z m 63.243034,-1.61552 -0.0531,-0.007 -0.33866,-0.15728 -0.33867,-0.15728 -0.381,-0.16494 -0.381,-0.16494 -0.27517,-0.11493 -0.27516,-0.11493 v -0.0651 -0.0652 l 0.0779,-0.14702 0.0779,-0.14702 0.23111,-0.5715 0.2311,-0.5715 h 0.15663 0.15663 v 0.17026 0.17025 l -0.17645,0.37538 -0.17644,0.37537 0.029,0.15287 0.029,0.15287 0.21664,0.0253 0.21664,0.0253 0.10014,-0.21978 0.10014,-0.21979 V 51.1343 51.01128 h 0.0847 0.0847 v -0.17522 -0.17522 l 0.1905,0.0271 0.1905,0.0271 -0.0297,0.20964 -0.0297,0.20965 -0.17253,0.36703 -0.17252,0.36703 0.077,0.0771 0.0771,0.0771 0.19789,0.0236 0.19788,0.0236 0.0657,-0.127 0.0657,-0.127 0.0829,-0.21167 0.0829,-0.21167 0.118,-0.27836 0.118,-0.27837 0.15508,0.11341 0.15509,0.1134 -0.27297,0.71529 -0.27296,0.7153 -0.0836,0.10583 -0.0836,0.10584 z M 6.920982,52.36611 H 6.791254 v -0.21723 -0.21724 l 0.09734,-0.18493 0.09734,-0.18493 0.05082,-0.0423 0.05083,-0.0423 0.101099,-0.28211 0.101099,-0.28211 -0.08148,-0.2143 -0.08148,-0.2143 -0.231289,0.058 -0.231288,0.058 -0.28238,0.0464 -0.282379,0.0464 0.02838,-0.19544 0.02838,-0.19544 0.40115,-0.13821 0.401151,-0.1382 0.05746,-0.0575 0.05746,-0.0575 h 0.156371 0.156371 l 0.147018,-0.0748 0.147018,-0.0748 0.229947,-0.10731 0.229947,-0.10731 0.129886,0.1078 0.129887,0.1078 v 0.11778 0.11778 l 0.08467,0.16818 0.08467,0.16819 0.08467,0.16818 0.08467,0.16819 v 0.33405 0.33405 l -0.245903,0.1751 -0.245904,0.1751 H 8.074352 7.901919 l -0.05233,-0.0847 -0.05233,-0.0847 -0.14317,5.4e-4 -0.143169,5.3e-4 -0.166575,0.27463 -0.166574,0.27464 -0.06353,0.14816 -0.06353,0.14817 z m 1.240799,-1.10067 h 0.06285 l 0.07621,-0.14816 0.0762,-0.14817 -0.04118,-0.127 -0.04118,-0.127 -0.126359,-0.27517 -0.126359,-0.27516 -0.13852,10e-4 -0.138519,0.001 -0.121522,0.0769 -0.121522,0.0769 0.115921,0.35124 0.11592,0.35125 0.172607,0.12089 0.172607,0.1209 z M 7.194569,49.57117 7.087587,49.57023 6.825484,49.36359 6.563381,49.15695 6.413227,48.76378 6.263073,48.37061 l -0.265076,0.0369 -0.265076,0.0369 -0.113713,0.0347 -0.113712,0.0347 -0.09795,-0.15058 -0.09795,-0.15058 0.127,-0.0793 0.127,-0.0793 0.423334,-0.13099 0.423333,-0.13098 0.338667,-0.0933 0.338666,-0.0933 0.196007,-0.0923 0.196006,-0.0923 0.07991,0.12309 0.07991,0.12309 0.0467,0.21167 0.0467,0.21166 0.07955,0.14702 0.07955,0.14702 -0.0027,0.36098 -0.0027,0.36098 -0.104831,0.127 -0.104832,0.127 -0.18766,0.10584 -0.18766,0.10583 z m 0.01097,-0.52377 0.220717,-0.0256 -0.0054,-0.40333 -0.0054,-0.40333 -0.100004,-0.1 -0.100004,-0.10001 -0.233269,0.0845 -0.233269,0.0845 0.02193,0.20716 0.02193,0.20716 0.09602,0.23729 0.09602,0.23729 z M 7.779165,30.42872 7.764925,30.41972 7.23979,30.27725 6.714655,30.13477 6.654175,30.07427 6.593695,30.01377 H 6.400124 6.206552 l -0.215651,-0.0983 -0.21565,-0.0983 v -0.15176 -0.15176 l 0.07384,-0.19449 0.07384,-0.19448 0.105624,-0.33867 0.105624,-0.33866 0.173963,-0.1905 0.173962,-0.1905 h 0.242221 0.24222 l 0.216409,0.14179 0.216409,0.1418 0.07747,0.20377 0.07747,0.20378 -0.127529,0.49215 -0.127529,0.49215 v 0.0513 0.0513 h 0.164336 0.164337 l 0.05233,0.0847 0.05233,0.0847 h 0.164336 0.164337 v 0.16027 0.16028 l -0.133925,0.0514 -0.133924,0.0514 z m -0.99713,-0.77916 0.117779,-0.0165 0.101521,-0.34425 0.101521,-0.34425 -0.06405,-0.17314 -0.06405,-0.17314 -0.12613,-0.0484 -0.12613,-0.0484 -0.113788,0.14246 -0.113788,0.14245 -0.105834,0.18935 -0.105833,0.18935 v 0.15755 0.15754 l 0.1905,0.0929 0.1905,0.0929 z M 7.918655,28.06179 7.510923,28.05679 7.342791,27.95593 7.174659,27.85508 6.983061,27.64341 6.791463,27.43175 6.791359,26.9861 6.791256,26.54045 6.897089,26.3511 7.002923,26.16175 7.288731,25.88658 7.57454,25.61141 h 0.320023 0.320024 l 0.338408,0.18063 0.338407,0.18064 0.114094,0.21318 0.114093,0.21319 v 0.3977 0.39769 l -0.127,0.24566 -0.127,0.24565 -0.08641,0.0925 -0.08641,0.0925 -0.183187,0.098 -0.183187,0.098 z m 0.0339,-0.3406 0.01829,0.007 L 8.249676,27.59522 8.528507,27.46226 8.633549,27.23968 8.73859,27.0171 V 26.79152 26.56595 L 8.524852,26.35221 8.311115,26.13847 8.080352,26.09337 7.84959,26.04827 l -0.2115,0.10019 -0.2115,0.10019 -0.156459,0.33229 -0.15646,0.33228 0.133282,0.27949 0.133282,0.2795 0.277011,0.12109 0.277011,0.12109 z m 62.31255,-0.67733 -0.18551,-0.007 -0.25979,-0.11406 -0.2598,-0.11407 -0.0887,-0.11186 -0.0887,-0.11186 -0.21609,-0.3928 -0.21609,-0.39279 -0.0167,-0.15754 -0.0167,-0.15754 0.01,-0.0968 0.01,-0.0968 0.87869,-0.43236 0.8787,-0.43235 h 0.14085 0.14085 l 0.25045,0.55822 0.25046,0.55823 v 0.38428 0.38427 l -0.30236,0.28517 -0.30236,0.28516 h -0.15831 -0.15831 l -0.0523,0.0847 -0.0523,0.0847 z m -0.16378,-0.50109 h 0.14872 l 0.27481,-0.0788 0.2748,-0.0788 0.1268,-0.1268 0.12681,-0.12681 v -0.34472 -0.34471 h -0.0847 -0.0847 V 25.28316 25.1242 l -0.11292,-0.0937 -0.11292,-0.0937 -0.22509,0.10451 -0.22509,0.10452 -6.6e-4,0.0635 -6.6e-4,0.0635 h -0.16433 -0.16434 l -0.0523,0.0847 -0.0523,0.0847 h -0.16434 -0.16434 v 0.16382 0.16382 l 0.0813,0.2138 0.0813,0.2138 0.17272,0.17271 0.17271,0.17272 z m -60.257067,-1.27 H 9.679921 l -0.05233,-0.0847 -0.05233,-0.0847 H 9.410925 9.246588 v -0.0847 -0.0847 H 9.122163 8.997739 L 8.696255,24.76464 8.394771,24.5953 h -0.14609 -0.14609 l -0.112431,0.254 -0.112432,0.254 H 7.715492 7.553255 v -0.13886 -0.13886 l 0.35823,-0.75014 0.358231,-0.75014 h 0.149769 0.14977 v 0.254 0.254 h -0.08467 -0.08467 v 0.15023 0.15022 l 0.802069,0.37894 0.802069,0.37895 0.0023,0.1905 0.0023,0.1905 z m 58.849137,-0.34189 -0.0531,-0.003 -0.0847,-0.10271 -0.0847,-0.10271 -0.17747,-0.33857 -0.17746,-0.33857 -0.18237,-0.32008 -0.18237,-0.32007 v -0.0398 -0.0398 h 0.127 0.127 v -0.0847 -0.0847 h 0.127 0.127 v -0.0847 -0.0847 h 0.16933 0.16934 v -0.0847 -0.0847 h 0.083 0.083 l 0.4726,-0.30231 0.47259,-0.30232 0.10685,0.0887 0.10684,0.0887 0.36074,0.71808 0.36073,0.71808 -0.0545,0.0882 -0.0545,0.0882 h -0.12993 -0.12993 l -0.0443,-0.16934 -0.0443,-0.16933 h -0.0748 -0.0748 V 23.4947 23.32536 h -0.064 -0.064 l -0.11057,-0.2498 -0.11057,-0.24979 -0.20643,0.0941 -0.20643,0.0941 v 0.11622 0.11623 l 0.21744,0.42908 0.21743,0.42909 -0.0454,0.11843 -0.0454,0.11843 h -0.13758 -0.13759 l -0.0443,-0.16933 -0.0443,-0.16933 h -0.0748 -0.0748 v -0.16934 -0.16933 h -0.0748 -0.0748 l -0.0462,-0.1767 -0.0462,-0.17669 -0.14509,0.0285 -0.1451,0.0285 -0.091,0.14459 -0.0911,0.1446 0.26594,0.53194 0.26595,0.53194 -0.0885,0.10663 -0.0885,0.10663 z m -58.145429,-0.97796 -0.110616,0.0425 -0.03824,-0.0598 -0.03824,-0.0598 -0.895802,-0.46439 -0.895802,-0.46439 0.0019,-0.12828 0.0019,-0.12828 0.165568,-0.21166 0.165568,-0.21167 0.0019,-0.0579 0.0019,-0.0579 0.266655,-0.42896 0.266656,-0.42896 H 9.55066 9.660008 l 0.0538,0.087 0.05379,0.0871 L 9.4648,22.0184 9.162003,22.56927 v 0.0788 0.0788 l 0.163199,0.0873 0.1632,0.0873 0.111967,-0.043 0.111967,-0.043 0.243213,-0.46469 0.243213,-0.46469 h 0.111623 0.111624 l 0.05732,0.0927 0.05732,0.0927 -0.112769,0.22476 -0.112768,0.22476 -0.156942,0.23277 -0.156942,0.23278 0.05376,0.16939 0.05376,0.16939 h 0.169675 0.169676 l 0.09978,-0.10841 0.09979,-0.10841 0.153386,-0.25142 0.153387,-0.25142 0.04699,-0.14817 0.04699,-0.14817 h 0.159458 0.159459 v 0.254 0.254 l -0.0635,6.6e-4 -0.0635,6.6e-4 -0.09321,0.18984 -0.09321,0.18984 -0.195634,0.35602 -0.195633,0.35603 z m 57.089439,-1.02525 -0.11386,0.0437 -0.0968,-0.14047 -0.0968,-0.14047 -0.3397,-0.53202 -0.3397,-0.53202 v -0.0879 -0.0879 l 0.12096,-0.12095 0.12095,-0.12095 h 0.0616 0.0616 l 0.30191,-0.23284 0.3019,-0.23283 0.42575,-0.27802 0.42576,-0.27801 0.19148,0.23568 0.19148,0.23568 0.29535,0.4929 0.29535,0.49291 v 0.11593 0.11594 l -0.0737,0.0456 -0.0737,0.0456 -0.1591,-0.14664 -0.15909,-0.14664 -0.15339,-0.25377 -0.15339,-0.25377 -0.047,-0.14816 -0.047,-0.14817 h -0.19143 -0.19142 l -0.10036,0.12092 -0.10035,0.12092 0.14413,0.28124 0.14414,0.28125 0.0517,0.0423 0.0517,0.0423 0.11278,0.20048 0.11279,0.20048 -0.0831,0.0831 -0.0831,0.0831 -0.15669,-0.051 -0.15669,-0.051 -0.16255,-0.34002 -0.16256,-0.34002 -0.11971,-0.0993 -0.11971,-0.0994 -0.14107,0.0888 -0.14107,0.0888 -0.0269,0.13666 -0.0269,0.13666 0.25974,0.37752 0.25974,0.37752 v 0.16619 0.16618 z m -55.978676,-0.97892 -0.168468,0.0203 -0.140023,-0.10498 -0.140023,-0.10499 -0.15631,-0.1048 -0.156311,-0.10481 -0.529166,-0.33785 -0.529167,-0.33785 0.0027,-0.15001 0.0027,-0.15001 0.111559,-0.14692 0.111558,-0.14691 0.965249,0.047 0.965249,0.047 -0.211667,-0.17865 -0.211666,-0.17864 -0.446779,-0.33901 -0.446778,-0.339 0.123231,-0.12323 0.12323,-0.12323 h 0.133048 0.133048 v 0.0664 0.0664 l 0.232833,0.13791 0.232833,0.13791 0.254,0.21891 0.254,0.21891 0.05054,10e-5 0.05055,1.1e-4 0.190116,0.16488 0.190117,0.16489 0.09801,0.0353 0.098,0.0353 -0.143601,0.24429 -0.143602,0.24429 -0.364398,-0.0121 -0.364398,-0.0121 -0.5715,-0.063 -0.5715,-0.063 v 0.0956 0.0956 l 0.596049,0.39635 0.596049,0.39634 -0.02541,0.1335 -0.02541,0.13349 z M 67.288445,20.3621 h -0.35192 l -0.16413,-0.15453 -0.16413,-0.15454 -0.16826,-0.22646 -0.16826,-0.22647 h -0.11501 -0.115 l -0.24891,0.17724 -0.2489,0.17724 -0.124,-0.0476 -0.12399,-0.0476 v -0.10907 -0.10908 l 0.29918,-0.27458 0.29918,-0.27458 h 0.0653 0.0653 l 0.33404,-0.30726 0.33405,-0.30725 0.20334,-0.13423 0.20334,-0.13423 0.12112,0.18242 0.12113,0.18242 0.20481,0.2379 0.20482,0.2379 0.13426,0.28234 0.13427,0.28234 -0.0563,0.22566 -0.0563,0.22566 -0.13353,0.14816 -0.13352,0.14817 z m -0.0452,-0.44816 0.21167,-0.0175 0.0279,-0.19665 0.0279,-0.19666 -0.19719,-0.2896 -0.1972,-0.2896 -0.14621,-5.8e-4 -0.14622,-5.7e-4 -0.13809,0.21075 -0.13809,0.21075 0.24197,0.29359 0.24197,0.29359 z m -53.707073,-0.44268 -0.113069,0.11307 -0.373764,-0.29189 -0.373765,-0.29189 -0.142579,-0.11795 -0.142579,-0.11794 -0.213531,-0.13991 -0.213531,-0.13991 -0.109557,0.0656 -0.109556,0.0656 -0.110634,0.15335 -0.110635,0.15335 h -0.11314 -0.113141 l -0.05141,-0.13397 -0.05141,-0.13396 0.518594,-0.67037 0.518593,-0.67037 h 0.09949 0.09949 l 0.09514,0.0951 0.09514,0.0951 -0.162874,0.17482 -0.162874,0.17483 v 0.14906 0.14906 l 0.3175,0.23621 0.3175,0.2362 0.136931,0.1491 0.136931,0.14911 h 0.0526 0.0526 l 0.170301,0.14581 0.170301,0.14582 v 0.0719 0.0719 z m 51.624673,-0.50519 -0.24593,0.0443 -0.254,-0.12994 -0.254,-0.12994 -0.19525,-0.30093 -0.19525,-0.30093 0.0259,-0.31074 0.0259,-0.31074 0.14514,-0.0275 0.14514,-0.0275 0.0532,0.23846 0.0532,0.23846 0.0411,0.15103 0.0411,0.15103 0.17868,0.16647 0.17868,0.16647 h 0.15337 0.15337 v -0.17342 -0.17343 l -0.16933,-0.35048 -0.16934,-0.35048 V 17.25913 16.982 l 0.1853,-0.17263 0.1853,-0.17263 h 0.15452 0.15451 l 0.18608,0.10583 0.18608,0.10583 0.0981,0.0888 0.0981,0.0888 0.14334,0.2772 0.14335,0.27721 -0.0544,0.24782 -0.0544,0.24782 h -0.061 -0.061 l -0.1016,-0.1016 -0.1016,-0.1016 v -0.11816 -0.11817 l -0.1751,-0.2459 -0.1751,-0.2459 h -0.16357 -0.16356 v 0.0688 0.0688 l 0.16933,0.35048 0.16933,0.35048 v 0.37473 0.37472 l -0.1139,0.0945 -0.1139,0.0945 z m -50.690059,-0.65026 -0.109788,0.0911 -0.292379,-0.256 -0.292378,-0.25601 -0.295166,-0.22691 -0.295166,-0.22691 -0.28328,-0.27929 -0.283279,-0.27929 0.101979,-0.12288 0.101979,-0.12287 h 0.106424 0.106424 l 0.329849,0.3175 0.329849,0.3175 0.44236,0.36771 0.44236,0.36772 v 0.10875 0.10875 z m 0.331162,-0.49371 h -0.01878 l -0.521671,-1.06577 -0.521671,-1.06576 0.182295,-0.24657 0.182295,-0.24657 h 0.09607 0.09607 l 0.524353,0.254 0.524353,0.254 h 0.03848 0.03848 l 0.468175,0.21415 0.468176,0.21415 v 0.12717 0.12718 l -0.138215,0.053 -0.138216,0.053 -0.156969,-0.098 -0.156969,-0.098 h -0.07262 -0.07262 l -0.351858,0.35537 -0.351858,0.35538 v 0.15262 0.15263 h 0.08467 0.08467 v 0.20261 0.20261 l -0.133925,0.0514 -0.133924,0.0514 z m -0.102289,-1.27 h 0.07925 l 0.154834,-0.14012 0.154833,-0.14013 v -0.1392 -0.1392 l -0.304745,-0.1102 -0.304744,-0.11019 -0.06871,0.072 -0.0687,0.072 0.139368,0.3175 0.139367,0.3175 z m 2.082248,-0.68157 -0.127,0.0715 -0.592666,-0.63804 -0.592667,-0.63804 -0.179243,-0.18482 -0.179243,-0.18482 0.10391,-0.14211 0.103911,-0.1421 h 0.138832 0.138833 l 9.1e-5,0.0635 9.1e-5,0.0635 0.519495,0.5715 0.519496,0.5715 h 0.111565 0.111565 l 0.198692,-0.19869 0.198692,-0.19869 0.224766,-0.14728 0.224767,-0.14727 0.08839,0.0546 0.08839,0.0546 v 0.16433 0.16434 h -0.06705 -0.06705 l -0.419783,0.38546 -0.419783,0.38547 z m 16.895998,-8.5471 h -0.122 l -0.041,-0.0663 -0.041,-0.0663 -0.1863,-1.03792 -0.1863,-1.03792 0.0496,-0.0496 0.0496,-0.0496 0.36319,-0.0702 0.36319,-0.0702 0.42853,-0.004 0.42854,-0.004 0.1853,0.17263 0.18529,0.17263 v 0.3362 0.3362 l -0.16217,0.13886 -0.16218,0.13886 -0.32466,0.11303 -0.32465,0.11304 -0.19813,0.001 -0.19812,10e-4 0.019,0.35983 0.019,0.35984 -0.0114,0.10583 -0.0114,0.10583 z m 0.28895,-1.32137 0.12939,-0.0551 0.21166,-0.0428 0.21167,-0.0428 0.10584,-0.0837 0.10583,-0.0837 V 5.5493 5.40464 l -0.19794,-0.10593 -0.19794,-0.10593 -0.3524,0.0949 -0.35239,0.0949 v 0.2338 0.2338 l 0.10345,0.10345 0.10345,0.10345 z m 11.74031,1.32137 h -0.20252 l -0.0847,-0.10583 -0.0847,-0.10583 -0.057,-0.18619 -0.057,-0.18619 -0.2413,-0.25831 -0.24129,-0.25831 h -0.25773 -0.25772 l -0.0258,0.40216 -0.0258,0.40217 -0.20211,0.0286 -0.20211,0.0286 0.054,-0.62124 0.054,-0.62124 0.0533,-0.54066 0.0533,-0.54066 0.60283,0.0528 0.60282,0.0528 0.32427,0.0915 0.32426,0.0915 0.12218,0.29242 0.12218,0.29242 -0.1,0.18682 -0.1,0.18682 -0.10758,0.10758 -0.10758,0.10758 h -0.13305 -0.13305 v 0.0447 0.0447 l 0.25522,0.50559 0.25522,0.50558 z m -0.60002,-1.44834 0.25823,0.009 0.1016,-0.1016 0.1016,-0.1016 V 5.573 5.4651 l -0.25909,-0.13398 -0.25909,-0.13398 -0.31241,0.026 -0.31241,0.026 -0.0251,0.21511 -0.0251,0.21511 0.23675,0.0934 0.23675,0.0934 z m -2.14207,1.09367 -0.3175,-0.016 -0.508,-0.031 -0.508,-0.031 -0.064,-0.0636 -0.064,-0.0636 0.0742,-1.06501 0.0742,-1.06502 0.0455,-0.0735 0.0455,-0.0736 0.85098,0.0781 0.85097,0.0781 0.0462,0.12038 0.0462,0.12039 -0.0525,0.085 -0.0525,0.085 -0.65753,-0.0582 -0.65753,-0.0582 -0.0602,0.0974 -0.0602,0.0974 0.051,0.203 0.051,0.20301 0.56998,0.025 0.56998,0.025 0.0304,0.15918 0.0304,0.15919 -0.0952,0.0588 -0.0952,0.0588 -0.46685,-0.0846 -0.46685,-0.0846 -0.13233,0.13233 -0.13233,0.13233 0.0538,0.16963 0.0538,0.16963 0.1877,0.0503 0.18769,0.0503 0.4445,0.001 0.4445,10e-4 v 0.21167 0.21167 z m -6.30346,-0.074 -0.36404,-0.005 -0.18159,-0.0733 -0.1816,-0.0733 -0.22057,-0.28918 -0.22057,-0.28918 V 5.72531 5.28583 l 0.13957,-0.21302 0.13958,-0.21302 0.24251,-0.1254 0.24251,-0.12541 0.4455,-0.0117 0.44549,-0.0117 0.23508,0.15403 0.23508,0.15403 0.12267,0.23722 0.12268,0.23722 V 5.7842 6.20032 l -0.17681,0.22478 -0.17681,0.22477 -0.24232,0.12531 -0.24232,0.12531 z m -0.0162,-0.3333 h 0.12621 l 0.24729,-0.12787 0.24728,-0.12788 0.0872,-0.16289 0.0872,-0.16289 V 5.69098 5.40204 l -0.15194,-0.17519 -0.15194,-0.17519 -0.30481,-0.0572 -0.30481,-0.0572 -0.19767,0.10578 -0.19767,0.10579 -0.10758,0.10758 -0.10758,0.10758 v 0.2984 0.2984 l 0.0983,0.21565 0.0983,0.21565 h 0.15074 0.15075 l 0.0523,0.0847 0.0523,0.0847 z m 2.22947,0.254 h -0.249 V 6.60879 6.40212 l -0.0847,-0.0523 -0.0847,-0.0523 V 6.09483 5.89215 l -0.0763,-0.19449 -0.0763,-0.19448 -0.13717,-0.45967 -0.13716,-0.45968 0.0779,-0.0779 0.0779,-0.0779 0.16893,0.0536 0.16892,0.0536 0.0473,0.27229 0.0472,0.2723 0.0521,0.29633 0.0521,0.29633 0.0932,0.1905 0.0932,0.1905 h 0.0589 0.0589 l 0.1489,-0.61383 0.1489,-0.61383 0.0721,-0.1905 0.0721,-0.1905 h 0.25791 0.25791 l 0.072,0.1905 0.072,0.1905 0.0955,0.30234 0.0955,0.30235 v 0.17756 0.17756 l 0.0514,0.13393 0.0514,0.13392 h 0.11633 0.11633 l 0.0388,-0.1905 0.0388,-0.1905 0.0526,-0.254 0.0526,-0.254 0.0495,-0.25118 0.0495,-0.25118 0.10865,-0.10865 0.10865,-0.10865 h 0.0817 0.0816 l 0.0408,0.10621 0.0408,0.10622 -0.16644,0.59228 -0.16645,0.59229 -0.0439,0.27595 -0.0439,0.27595 -0.0753,0.0465 -0.0753,0.0465 v 0.1697 0.1697 l -0.26959,-0.0265 -0.26958,-0.0265 -0.0733,-0.254 -0.0733,-0.254 -0.12459,-0.46567 -0.1246,-0.46566 -0.0373,-0.10441 -0.0373,-0.10441 -0.12143,0.0466 -0.12143,0.0466 -0.0416,0.22714 -0.0416,0.22714 -0.13829,0.4978 -0.1383,0.4978 -0.0456,0.0737 -0.0455,0.0737 z m 21.86884,64.93935 h 0.15657 l 0.18176,-0.16934 0.18176,-0.16933 h 0.11103 0.11104 v -0.0847 -0.0847 h 0.127 0.127 v -0.0704 -0.0704 l 0.23283,-0.11957 0.23283,-0.11956 0.127,-0.13159 0.127,-0.1316 0.29634,-0.20357 0.29633,-0.20357 0.0423,-0.0469 0.0423,-0.0469 0.33866,-0.25015 0.33867,-0.25016 0.29633,-0.27779 0.29634,-0.2778 0.0545,-7.3e-4 0.0546,-7.4e-4 0.25259,-0.23283 0.25259,-0.23283 0.82873,-0.762 0.82873,-0.762 0.26114,-0.26296 0.26113,-0.26295 0.37093,-0.40747 0.37093,-0.40748 -0.8584,-0.8324 -0.8584,-0.83241 h -0.0905 -0.0905 l -0.9925,0.99483 -0.9925,0.99484 -0.47425,0.42333 -0.47425,0.42333 -0.36379,0.29634 -0.3638,0.29633 -0.3076,0.254 -0.30761,0.254 -0.28178,0.21167 -0.28178,0.21166 -0.10754,0.10584 -0.10755,0.10583 h -0.0907 -0.0907 v 0.0647 0.0647 l -0.33866,0.20931 -0.33867,0.2093 v 0.0647 0.0647 h -0.10676 -0.10676 l -0.31701,0.27517 -0.31702,0.27517 0.36525,0.55033 0.36525,0.55033 0.28649,0.40217 0.28649,0.40217 z m -43.228276,-0.34125 0.09857,0.003 0.256493,-0.40217 0.256493,-0.40216 0.376477,-0.55034 0.376477,-0.55033 -0.09313,-0.11474 -0.09313,-0.11473 -0.503375,-0.34184 -0.503376,-0.34184 -0.135035,-0.10879 -0.135036,-0.1088 -0.724829,-0.58592 -0.724829,-0.58593 -0.193161,-0.16104 -0.19316,-0.16104 -0.687787,-0.635 -0.687786,-0.635 -0.595557,-0.6012 -0.595557,-0.60119 -0.441447,-0.47831 -0.441446,-0.4783 -0.108887,0.003 -0.108887,0.003 -0.465666,0.4203 -0.465667,0.42031 -0.04972,1.5e-4 -0.04972,1.5e-4 -0.353399,0.33618 -0.353399,0.33618 0.233785,0.26775 0.233784,0.26775 1.312334,1.323 1.312333,1.32299 0.388942,0.33791 0.388943,0.33791 0.278516,0.21166 0.278517,0.21167 0.221541,0.19768 0.221541,0.19769 0.635,0.4792 0.635,0.4792 0.04233,0.0469 0.04233,0.0469 0.296334,0.20351 0.296333,0.20351 0.04233,0.0537 0.04233,0.0536 0.169333,0.096 0.169333,0.096 z m 51.292586,-6.68862 0.0862,-0.003 0.58265,-0.75546 0.58264,-0.75547 0.15819,-0.16979 0.15819,-0.16979 v -0.0882 -0.0882 h 0.0847 0.0847 v -0.0885 -0.0885 l 0.21167,-0.21166 0.21166,-0.21167 v -0.0748 -0.0748 l 0.10801,-0.11188 0.10801,-0.11188 0.48466,-0.69579 0.48466,-0.69578 v -0.0874 -0.0874 h 0.0847 0.0847 V 60.04394 59.9329 l 0.14817,-0.16413 0.14816,-0.16413 0.12687,-0.254 0.12686,-0.254 0.0425,-0.0423 0.0425,-0.0423 0.1478,-0.254 0.14779,-0.254 0.22922,-0.46566 0.22921,-0.46567 0.0464,-0.0423 0.0464,-0.0423 0.19594,-0.40132 0.19594,-0.40132 -0.0483,-0.0782 -0.0483,-0.0782 -0.4395,-0.21902 -0.4395,-0.21901 h -0.11038 -0.11038 v -0.0847 -0.0847 h -0.16933 -0.16933 v -0.0847 -0.0847 h -0.16228 -0.16228 l -0.0282,-0.0766 -0.0282,-0.0766 -0.19803,-0.0293 -0.19802,-0.0292 -0.19014,0.33867 -0.19013,0.33866 -0.33151,0.635 -0.33151,0.635 -0.0423,0.0423 -0.0423,0.0423 -0.10584,0.1905 -0.10583,0.1905 -0.10583,0.18619 -0.10584,0.18619 -0.062,0.089 -0.062,0.089 -0.55186,0.83969 -0.55185,0.83968 v 0.0272 0.0272 l -0.1211,0.14914 -0.12109,0.14913 -0.57203,0.762 -0.57202,0.762 -0.0525,0.0423 -0.0525,0.0423 -0.316,0.41861 -0.31599,0.41862 0.86958,0.87255 0.86958,0.87255 z M 9.423961,63.88081 H 9.5711 l 0.02822,-0.0635 0.02822,-0.0635 0.506653,-0.42334 0.506652,-0.42333 0.297528,-0.27835 0.297528,-0.27835 -0.08527,-0.0603 -0.08527,-0.0603 -0.210911,-0.31693 -0.210911,-0.31692 -0.0635,-5.8e-4 -0.0635,-5.7e-4 v -0.11995 -0.11994 l -0.06495,-0.0282 -0.06495,-0.0282 -0.33548,-0.46566 L 9.71568,60.36722 9.608111,60.25534 9.500542,60.14346 v -0.0726 -0.0726 L 9.390683,59.88638 9.280824,59.7745 9.009683,59.37825 8.738542,58.98199 v -0.0541 -0.0542 L 8.498375,58.51977 8.258208,58.16585 7.712428,57.19218 7.166649,56.21851 6.844591,55.56235 6.522533,54.90618 h -0.06143 -0.06143 l -0.375736,0.17244 -0.375736,0.17244 -0.147018,0.0816 -0.147018,0.0816 H 5.226016 5.097868 v 0.0677 0.0677 l -0.3175,0.11242 -0.3175,0.11243 -0.09709,0.077 -0.09709,0.077 0.04733,0.18739 0.04733,0.18739 0.05214,0.0423 0.05214,0.0423 0.353593,0.71966 0.353593,0.71967 0.285612,0.508 0.285612,0.508 0.120417,0.21167 0.120418,0.21166 0.04233,0.0423 0.04233,0.0423 0.153386,0.254 0.153387,0.254 0.04699,0.14817 0.04699,0.14816 h 0.07479 0.07479 v 0.127 0.127 h 0.08467 0.08467 v 0.11995 0.11994 l 0.07202,0.0282 0.07202,0.0282 0.496118,0.762 0.496119,0.762 0.151526,0.13693 0.151525,0.13693 v 0.0959 0.0959 h 0.08467 0.08467 v 0.0907 0.0907 l 0.105833,0.1121 0.105833,0.1121 0.33264,0.38985 0.332639,0.38986 z m 65.241834,-8.55772 0.0142,0.006 0.13392,-0.0514 0.13393,-0.0514 v -0.16028 -0.16027 h 0.0847 0.0847 v -0.12815 -0.12815 l 0.0776,-0.14702 0.0776,-0.14701 0.12694,-0.29634 0.12695,-0.29633 0.18445,-0.508 0.18445,-0.508 0.25669,-0.762 0.25668,-0.762 0.0629,-0.16933 0.0629,-0.16934 0.18044,-0.56145 0.18044,-0.56144 v -0.17939 -0.17938 h 0.0761 0.0761 l 0.0433,-0.35984 0.0433,-0.35983 0.0969,-0.381 0.0969,-0.381 0.0836,-0.381 0.0836,-0.381 0.0859,-0.53849 0.0859,-0.5385 -0.0484,-0.0484 -0.0484,-0.0484 -1.16285,-0.19127 -1.16286,-0.19128 -0.10476,0.13674 -0.10475,0.13674 -0.0459,0.3028 -0.0459,0.30279 -0.0821,0.26001 -0.0822,0.26001 v 0.15731 0.15731 l -0.0825,0.26001 -0.0825,0.26001 -0.12318,0.508 -0.12317,0.508 -0.13736,0.508 -0.13735,0.508 -0.37804,1.143 -0.37804,1.143 -0.0832,0.1905 -0.0832,0.1905 -0.076,0.1905 -0.076,0.1905 -0.13563,0.3175 -0.13564,0.3175 -0.13899,0.30128 -0.13899,0.30127 0.0976,0.0976 0.0975,0.0976 0.99394,0.48379 0.99394,0.4838 z M 3.778734,54.65214 H 3.904941 L 4.480243,54.38748 5.055544,54.12282 5.507355,53.91201 5.959166,53.7012 5.916246,53.56283 5.873326,53.42447 5.612317,52.80116 5.351307,52.17785 5.025343,51.1925 4.699379,50.20714 l -0.106903,-0.381 -0.106902,-0.381 -0.06503,-0.21167 -0.06503,-0.21166 -0.08914,-0.33867 -0.08914,-0.33867 -0.09536,-0.42333 -0.09536,-0.42333 -0.07301,-0.29634 -0.073,-0.29633 -0.0986,-0.508 -0.0986,-0.508 -0.08549,-0.40217 -0.08549,-0.40216 -0.05506,0.001 -0.05505,10e-4 -0.935577,0.0774 -0.935577,0.0774 -0.239212,0.06 -0.239213,0.06 0.05385,0.43266 0.05385,0.43266 0.07632,0.381 0.07632,0.381 0.0958,0.46566 0.0958,0.46567 0.07636,0.33867 0.07636,0.33866 0.09451,0.381 0.09451,0.381 0.04689,0.23387 0.04689,0.23387 0.0749,0.0463 0.07491,0.0463 v 0.24401 0.244 l 0.08467,0.0523 0.08467,0.0523 v 0.20781 0.20782 l 0.07641,0.14702 0.07641,0.14702 0.10817,0.381 0.108169,0.381 0.05176,0.0847 0.05176,0.0847 0.107922,0.33867 0.107922,0.33867 0.0712,0.16933 0.0712,0.16933 0.12725,0.33867 0.127249,0.33867 0.17395,0.40216 0.17395,0.40217 z m 73.712911,-9.99067 h 0.39887 l 0.0952,-0.65616 0.0952,-0.65617 0.0845,-1.13876 0.0845,-1.13876 v -1.77745 -1.77745 l -0.0916,-1.19013 -0.0916,-1.19013 -0.0989,-0.0988 -0.0989,-0.0988 -1.18534,0.0988 -1.18533,0.0988 0.0125,0.635 0.0125,0.63501 0.059,2.159 0.059,2.159 -0.13698,1.524 -0.13698,1.524 -0.0499,0.23129 -0.0499,0.23129 0.22017,0.0837 0.22016,0.0837 0.64282,0.0798 0.64283,0.0798 0.0497,0.0497 0.0497,0.0497 z m -76.292421,-0.64013 0.215654,-0.0364 0.846338,-0.0878 0.846339,-0.0878 0.09351,-0.10313 0.0935,-0.10314 -0.108674,-1.143 -0.108674,-1.143 -0.0049,-1.86267 -0.0049,-1.86266 0.08152,-0.97367 0.08152,-0.97368 0.0496,-0.43453 0.0496,-0.43452 -0.27148,-0.0946 -0.271481,-0.0946 h -0.33089 -0.33089 l -0.589271,-0.0973 -0.589271,-0.0973 -0.05332,0.0533 -0.05332,0.0533 -0.125379,0.86949 -0.125378,0.86951 -0.0059,3.048 -0.0059,3.048 0.110918,0.80433 0.110919,0.80434 0.09232,0.0579 0.09232,0.058 z m 74.341321,-10.15927 0.21167,-0.048 0.99241,-0.0477 0.99242,-0.0477 0.042,-0.13781 0.042,-0.13782 -0.0874,-0.508 -0.0874,-0.508 -0.0412,-0.381 -0.0412,-0.381 -0.0745,-0.16933 -0.0745,-0.16934 -0.0529,-0.29633 -0.0529,-0.29633 -0.0465,-0.31803 -0.0465,-0.31804 -0.0757,-0.0468 -0.0757,-0.0468 V 29.7177 29.43136 l -0.0847,-0.0523 -0.0847,-0.0523 v -0.244 -0.24401 l -0.0847,-0.0523 -0.0847,-0.0523 v -0.20782 -0.20782 l -0.0775,-0.14702 -0.0775,-0.14702 -0.18634,-0.635 -0.18634,-0.635 -0.3748,-1.016 -0.37481,-1.016 -0.081,-0.14702 -0.081,-0.14701 v -0.0919 -0.0919 l -0.12137,-0.12138 -0.12138,-0.12137 -0.61946,0.28525 -0.61945,0.28526 -0.48684,0.22565 -0.48683,0.22565 v 0.16777 0.16778 l 0.16212,0.35891 0.16213,0.35891 0.25697,0.71967 0.25697,0.71966 0.12451,0.381 0.1245,0.381 0.14086,0.46567 0.14086,0.46567 0.16966,0.635 0.16966,0.635 0.0726,0.33866 0.0726,0.33867 0.0907,0.381 0.0907,0.381 0.0665,0.42548 0.0665,0.42548 0.0511,0.0827 0.0511,0.0827 0.0264,0.38085 0.0264,0.38085 0.0874,0.10646 0.0874,0.10646 z M 3.276918,33.3694 l 0.253373,-0.0109 0.2786,-1.31233 0.2786,-1.31233 0.08064,-0.33867 0.08063,-0.33867 0.08018,-0.29633 0.08018,-0.29633 0.05512,-0.21167 0.05512,-0.21167 0.0668,-0.16933 0.0668,-0.16933 0.270701,-0.84667 0.2707,-0.84667 0.247819,-0.65269 0.247818,-0.6527 0.137621,-0.32097 0.137621,-0.32097 0.08128,-0.15815 0.08128,-0.15815 -0.07045,-0.0647 -0.07045,-0.0646 -0.762,-0.27805 -0.762,-0.27804 -0.358039,-0.10841 -0.358039,-0.1084 -0.128795,0.29175 -0.128794,0.29174 -0.119305,0.27517 -0.119306,0.27516 -0.255797,0.67734 -0.255798,0.67733 -0.269339,0.84667 -0.26934,0.84666 -0.07522,0.14702 -0.07522,0.14702 v 0.20782 0.20782 l -0.07531,0.0465 -0.07531,0.0465 -0.04557,0.27595 -0.04557,0.27595 -0.09465,0.381 -0.09466,0.381 -0.07247,0.29633 -0.07247,0.29634 -0.09262,0.42333 -0.09262,0.42333 -0.13495,0.74737 -0.13495,0.74736 0.05532,0.0553 0.05532,0.0553 0.947091,0.0973 0.947091,0.0973 z m 69.046297,-9.5358 0.127,8.9e-4 1.03886,-0.52115 1.03886,-0.52116 -0.0546,-0.17214 -0.0546,-0.17215 -0.52514,-1.02171 -0.52513,-1.02172 -0.12042,-0.21166 -0.12043,-0.21167 -0.0423,-0.0423 -0.0423,-0.0423 -0.15339,-0.254 -0.15339,-0.254 -0.047,-0.14816 -0.047,-0.14817 h -0.0748 -0.0748 v -0.0817 -0.0817 l -0.56889,-0.87076 -0.56889,-0.87076 -0.15078,-0.16413 -0.15077,-0.16413 v -0.0924 -0.0923 l -0.16933,-0.12205 -0.16934,-0.12205 V 16.32191 16.2136 h -0.0847 -0.0847 v -0.0837 -0.0837 l -0.14817,-0.17974 -0.14816,-0.17975 -0.0887,-0.0964 -0.0887,-0.0964 -0.36598,-0.48684 -0.36598,-0.48683 h -0.0738 -0.0738 l -0.23357,0.23339 -0.23357,0.23339 -0.55034,0.42067 -0.55033,0.42067 -0.0922,0.0883 -0.0922,0.0883 -0.0412,0.12366 -0.0412,0.12366 0.16565,0.17116 0.16565,0.17116 0.69086,0.93134 0.69085,0.93133 0.55678,0.84667 0.55677,0.84666 0.50406,0.84667 0.50405,0.84667 0.50211,0.99445 0.50211,0.99446 z m -65.766789,-0.34891 0.06155,0.0101 0.117711,-0.1905 0.117711,-0.1905 0.560796,-1.05834 0.560795,-1.05833 0.148945,-0.254 0.148946,-0.254 0.0635,-0.0282 0.0635,-0.0282 v -0.0768 -0.0768 l 0.638544,-0.95328 0.638544,-0.95329 0.296909,-0.42333 0.296909,-0.42333 0.101713,-0.12728 0.101714,-0.12728 0.293934,-0.38072 0.293934,-0.38072 0.150566,-0.13693 0.150566,-0.13694 v -0.12818 -0.12819 l -0.3175,-0.23841 -0.3175,-0.2384 -0.04233,-0.0509 -0.04233,-0.0509 -0.296333,-0.20351 -0.296333,-0.20351 -0.04233,-0.0505 -0.04233,-0.0505 -0.275167,-0.19219 -0.275166,-0.19218 -3.92e-4,0.0693 -3.92e-4,0.0693 -0.253608,0.27057 -0.253608,0.27058 v 0.0706 0.0706 L 8.73856,15.45165 8.569227,15.5737 v 0.10831 0.10831 h -0.06641 -0.06641 l -0.137797,0.23283 -0.137796,0.23284 -0.175222,0.21166 -0.175222,0.21167 -0.0657,0.0847 -0.0657,0.0847 -0.528534,0.77638 -0.528534,0.77637 v 0.0527 0.0527 l -0.169334,0.18176 -0.169333,0.18176 v 0.11103 0.11104 h -0.064 -0.064 l -0.119719,0.27517 -0.119718,0.27516 -0.04912,0.0423 -0.04912,0.0423 -0.207203,0.381 -0.207203,0.381 -0.131463,0.25394 -0.131464,0.25393 -0.04438,0.0424 -0.04438,0.0424 -0.358485,0.71966 -0.358485,0.71967 7.01e-4,0.0979 7.01e-4,0.098 0.486833,0.14815 0.486833,0.14816 0.08043,0.0714 0.08043,0.0714 h 0.180622 0.180622 l 0.06055,0.0605 0.06055,0.0606 0.271062,0.0987 0.271062,0.0987 z m 5.706824,-8.45666 0.09571,1e-4 0.443637,-0.50806 0.443638,-0.50805 0.603656,-0.58426 0.603657,-0.58425 0.264714,-0.24119 0.264713,-0.24119 0.545125,-0.48449 0.545124,-0.48448 0.173709,-0.15052 0.173709,-0.15051 0.278694,-0.21167 0.278694,-0.21166 0.09243,-0.0875 0.09242,-0.0875 0.296334,-0.2048 0.296333,-0.2048 0.04233,-0.0493 0.04233,-0.0493 0.5715,-0.40356 0.5715,-0.40356 v -0.069 -0.069 L 18.829063,8.83756 18.674918,8.63565 18.273961,7.98589 17.873003,7.33613 l -0.119247,-0.099 -0.119247,-0.099 -0.278151,0.19533 -0.278151,0.19533 -0.02822,0.0666 -0.02822,0.0666 h -0.103979 -0.10398 l -0.164131,0.15047 -0.164132,0.15047 -0.296333,0.20815 -0.296334,0.20816 -0.155296,0.12821 -0.155297,0.12821 -0.175158,0.14816 -0.175158,0.14817 -0.05054,10e-4 -0.05055,10e-4 -0.296333,0.26106 -0.296333,0.26106 -0.338667,0.29271 -0.338667,0.2927 -0.710902,0.65139 -0.710903,0.65138 -0.516764,0.5165 -0.516764,0.51649 -0.529166,0.56608 -0.529167,0.56608 5.78e-4,0.0604 5.79e-4,0.0604 0.316921,0.21155 0.316922,0.21156 0.09243,0.0848 0.09243,0.0848 0.2787,0.21166 0.278701,0.21167 0.22154,0.1904 0.221541,0.19039 z m 54.195835,-0.01 0.10486,0.01 0.17975,-0.14817 0.17975,-0.14816 0.0964,-0.0875 0.0964,-0.0874 0.29236,-0.20572 0.29235,-0.20572 0.3547,-0.32824 0.3547,-0.32824 -0.35072,-0.38663 -0.35072,-0.38663 -0.93929,-0.93929 -0.9393,-0.93929 -0.49251,-0.42333 -0.49252,-0.42334 -0.17686,-0.16957 -0.17686,-0.16957 -0.67733,-0.53525 -0.67733,-0.53525 -0.127,-0.10072 -0.127,-0.10072 -0.29634,-0.20638 -0.29633,-0.20638 -0.0423,-0.0505 -0.0423,-0.0505 -0.29633,-0.20351 -0.29633,-0.20351 -0.0423,-0.0549 -0.0423,-0.0549 -0.19858,-0.10464 -0.19858,-0.10465 -0.14009,0.19178 -0.14008,0.19178 -0.52917,0.76461 -0.52917,0.76461 v 0.10518 0.10518 l 0.40217,0.27431 0.40217,0.2743 0.0282,0.0684 0.0282,0.0684 h 0.0843 0.0843 l 0.64951,0.52888 0.64951,0.52888 0.16077,0.12729 0.16078,0.12728 0.60122,0.50452 0.60123,0.50452 1.35466,1.36959 1.35467,1.36958 z m -7.84222,-6.60409 0.052,0.01 0.24435,-0.35983 0.24434,-0.35984 0.0635,-0.0282 0.0635,-0.0282 V 7.52792 7.40798 h 0.0847 0.0847 v -0.127 -0.127 h 0.0847 0.0847 v -0.127 -0.127 h 0.064 0.064 l 0.11968,-0.27038 0.11968,-0.27039 -0.10052,-0.0335 -0.10053,-0.0335 -0.11944,-0.11944 -0.11944,-0.11944 h -0.13305 -0.13305 v -0.0847 -0.0847 h -0.127 -0.127 v -0.064 -0.064 l -0.27516,-0.11972 -0.27517,-0.11971 -0.0423,-0.0496 -0.0423,-0.0496 -0.508,-0.25825 -0.508,-0.25826 -0.635,-0.32137 -0.635,-0.32138 -0.3255,-0.16069 -0.3255,-0.16068 h -0.119 -0.119 v -0.0847 -0.0847 h -0.12815 -0.12814 l -0.14702,-0.0748 -0.14702,-0.0748 -0.254,-0.10443 -0.254,-0.10442 -0.14702,-0.0748 -0.14702,-0.0748 h -0.12109 -0.12109 l -0.0282,-0.0669 -0.0282,-0.0669 -0.42333,-0.13867 -0.42333,-0.13867 -0.74766,-0.27139 -0.74765,-0.27139 -0.10818,0.11715 -0.10818,0.11716 -0.36465,0.99778 -0.36465,0.99778 0.0775,0.0667 0.0775,0.0667 0.84666,0.28176 0.84667,0.28175 0.3334,0.15664 0.33341,0.15663 h 0.15343 0.15343 v 0.0847 0.0847 h 0.12815 0.12814 l 0.16819,0.0847 0.16818,0.0847 0.16819,0.0847 0.16818,0.0847 h 0.12815 0.12815 v 0.0847 0.0847 h 0.16933 0.16934 v 0.0847 0.0847 h 0.0988 0.0988 l 0.93834,0.47941 0.93834,0.47942 0.33867,0.20164 0.33866,0.20163 0.14817,0.0485 0.14817,0.0485 v 0.059 0.059 l 0.29633,0.11627 0.29633,0.11627 v 0.0627 0.0627 l 0.14817,0.0387 0.14817,0.0387 z m -38.384821,-0.0781 0.1905,0.003 v -0.0748 -0.0748 l 0.148167,-0.047 0.148166,-0.047 0.254,-0.15338 0.254,-0.15339 0.04233,-0.0423 0.04233,-0.0423 0.381,-0.19962 0.381,-0.19961 1.047293,-0.54122 1.047293,-0.54121 h 0.116874 0.116873 v -0.0847 -0.0847 h 0.128149 0.128149 l 0.147018,-0.0776 0.147018,-0.0775 0.296333,-0.12407 0.296333,-0.12407 0.296334,-0.13077 0.296333,-0.13077 0.889,-0.30674 0.889,-0.30675 0.1905,-0.0787 0.1905,-0.0787 V 4.44895 4.28076 L 28.179262,3.91797 28.061988,3.55518 27.90807,3.02211 27.754153,2.48904 27.649629,2.40234 27.545104,2.31564 26.671987,2.62489 25.79887,2.93414 l -0.296333,0.0984 -0.296333,0.0984 -0.04233,0.0463 -0.04233,0.0463 -0.381,0.11953 -0.381,0.11952 -0.277742,0.15209 -0.277742,0.15209 h -0.124425 -0.124424 v 0.0847 0.0847 h -0.118999 -0.118999 l -0.325501,0.15999 -0.325501,0.16 -0.508,0.25488 -0.508,0.25489 -0.550334,0.29205 -0.550333,0.29206 -0.338667,0.1951 -0.338666,0.1951 -0.338667,0.17746 -0.338667,0.17747 -0.191138,0.17226 -0.191139,0.17227 0.106472,0.22924 0.106472,0.22924 0.0635,6.6e-4 0.0635,6.6e-4 v 0.127 0.127 h 0.08467 0.08467 v 0.127 0.127 h 0.08467 0.08467 v 0.127 0.127 h 0.07036 0.07036 l 0.12014,0.23283 0.120141,0.23284 0.08467,0.10261 0.08467,0.10261 z m 9.650327,-4.14503 0.234506,-0.0708 0.302345,-0.0918 0.302344,-0.0918 h 0.221826 0.221825 l 0.0468,-0.0757 0.0468,-0.0757 0.318031,-0.047 0.318027,-0.047 0.42334,-0.0809 0.42333,-0.0809 0.33867,-0.0536 0.33866,-0.0536 0.42334,-0.0771 0.42333,-0.0771 0.71967,-0.0859 0.71967,-0.0859 1.29116,-0.1007 1.29117,-0.10071 V 1.72212 0.54964 l -0.52917,0.004 -0.52916,0.004 -1.05834,0.0784 -1.05833,0.0784 -0.67733,0.0929 -0.67734,0.0929 -0.508,0.0744 -0.508,0.0744 -0.46567,0.0901 -0.46566,0.0901 -0.403936,0.0522 -0.403932,0.0522 -0.04556,0.0737 -0.04557,0.0737 h -0.28634 -0.28634 l -0.05233,0.0847 -0.05233,0.0847 h -0.28634 -0.28634 l -0.05233,0.0847 -0.05233,0.0847 h -0.239944 -0.239945 l -0.05257,0.13699 -0.05257,0.13699 0.137883,0.47684 0.137883,0.47685 0.07496,0.19448 0.07496,0.19448 v 0.11268 0.11268 l 0.125327,0.29995 0.125327,0.29995 z m 18.998974,-0.009 0.1378,0.009 0.0843,-0.10584 0.0843,-0.10583 0.10715,-0.33867 0.10716,-0.33866 0.0843,-0.21167 0.0843,-0.21167 0.0628,-0.16933 0.0628,-0.16933 0.0977,-0.24231 0.0977,-0.24231 -0.0975,-0.11753 -0.0975,-0.11752 h -0.2267 -0.2267 l -0.0804,-0.071 -0.0804,-0.071 -0.508,-0.10461 -0.508,-0.10462 -0.29633,-0.072 -0.29634,-0.072 -0.46566,-0.0881 -0.46567,-0.0881 -0.254,-0.051 -0.254,-0.051 -0.508,-0.076 -0.508,-0.076 -0.635,-0.0865 -0.635,-0.0865 -1.64125,-0.12592 -1.64124,-0.12592 -0.0733,0.0453 -0.0733,0.0453 v 1.16761 1.16761 l 0.8255,0.0583 0.8255,0.0583 0.84667,0.0798 0.84666,0.0798 0.59267,0.0836 0.59267,0.0836 0.508,0.0846 0.508,0.0846 0.42333,0.0836 0.42333,0.0836 0.381,0.0839 0.381,0.0839 0.33867,0.0848 0.33867,0.0848 0.29633,0.0805 0.29633,0.0805 z"
       id="path1" /></g></svg>
